<?xml version="1.0" encoding="UTF-8"?>
<svg width="153px" height="28px" viewBox="0 0 153 28" version="1.1" xmlns="http://www.w3.org/2000/svg" xmlns:xlink="http://www.w3.org/1999/xlink">
    <!-- Generator: Sketch 57.1 (83088) - https://sketch.com -->
    <title>bitcoin-magazine</title>
    <desc>Created with Sketch.</desc>
    <g id="Assets" stroke="none" stroke-width="1" fill="none" fill-rule="evenodd">
        <g id="bitcoin-magazine" transform="translate(0.000000, -1.000000)">
            <g id="Group" transform="translate(0.598449, 4.916790)">
                <g transform="translate(13.653572, 0.161584)" fill="#8E9BB2" id="Shape">
                    <path d="M3.41597196,16.8680305 L0.0554741654,18.5173786 L0.0554741654,6.12777978 L3.41597196,4.47843167 L3.41597196,16.8680305 Z M7.97817777,14.6287714 L4.61776706,16.278206 L4.61776706,3.88860716 L7.97582643,2.24038252 L7.97817777,2.24038252 L7.97817777,14.6287714 Z M9.17997288,14.0389469 L9.17997288,1.64934811 L12.5404707,0 L12.5404707,12.3895988 L9.17997288,14.0389469 Z"></path>
                </g>
                <g transform="translate(0.068062, 0.161584)" fill="#657795" id="Shape">
                    <path d="M12.469408,15.1749533 L12.469408,18.5096871 L0,12.3895988 L0,9.05477853 L12.469408,15.1749533 Z M12.469408,10.6475208 L12.469408,13.982341 L0,7.86216633 L0,4.52743248 L12.469408,10.6475208 Z M12.469408,6.1200883 L12.469408,9.45490857 L0,3.33482027 L0,0 L12.469408,6.1200883 Z"></path>
                </g>
            </g>
            <g id="Group" transform="translate(34.388233, 0.724300)" fill="#657795" fill-rule="nonzero">
                <g transform="translate(0.290727, 0.437300)" id="Shape">
                    <path d="M0.02693504,0.0042086 L0.02693504,19.1238784 L9.81950552,19.1238784 C14.4018292,19.1238784 17.3478492,17.0532472 17.3478492,13.7789564 C17.3478492,11.3505942 15.8474833,9.4398898 13.5016097,8.9516922 C15.4931192,8.3793226 16.7477028,6.7674288 16.7477028,4.8314728 C16.7477028,1.8854528 13.8837505,0.0042086 9.41000874,0.0042086 L0.02693504,0.0042086 Z M5.6731928,4.2591032 L9.10993556,4.2591032 C10.2285814,4.2591032 10.9377305,4.860933 10.9377305,5.8415368 C10.9377305,6.8516008 10.2285814,7.5039338 9.10993556,7.5039338 L5.6731928,7.5039338 L5.6731928,4.2591032 Z M5.6731928,11.3800544 L9.10993556,11.3800544 C10.5560105,11.3800544 11.4558092,12.0323874 11.4558092,13.067703 C11.4558092,14.1871906 10.5560105,14.898444 9.10993556,14.898444 L5.6731928,14.898444 L5.6731928,11.3800544 Z"></path>
                </g>
                <g transform="translate(20.912867, 0.437300)" id="Rectangle">
                    <rect x="0.13551692" y="0.0042086" width="5.67361366" height="19.1213532"></rect>
                </g>
                <g transform="translate(29.963173, 0.437300)" id="Path">
                    <polygon points="14.8980231 4.5326622 14.8980231 0.0042086 0.1956999 0.0042086 0.1956999 4.5326622 4.68290922 4.5326622 4.68290922 19.1238784 10.3838788 19.1238784 10.3838788 4.5326622"></polygon>
                </g>
                <g transform="translate(46.457940, 0.000000)">
                    <g transform="translate(0.274433, 0.016440)" id="Path">
                        <path d="M10.422177,0.2609332 C4.503202,0.2609332 0.1388838,4.3811526 0.1388838,9.9449218 C0.1388838,15.592863 4.4211343,19.7930458 10.2311066,19.7930458 C13.1228357,19.7930458 16.2595052,18.3452874 18.3326616,16.1105208 L15.0592125,12.6173828 C13.7499171,13.9557176 11.9772547,14.8268978 10.5042447,14.8268978 C7.91258886,14.8268978 5.9488561,12.6973462 5.9488561,9.89021 C5.9488561,7.0788652 7.91258886,4.9787738 10.5042447,4.9787738 C12.0862575,4.9787738 13.8593407,5.9888378 15.0592125,7.5165596 L18.3326616,3.6446476 C16.3958639,1.5698078 13.3134852,0.2609332 10.422177,0.2609332 Z"></path>
                    </g>
                    <g transform="translate(19.633993, 0.016440)" id="Shape">
                        <path d="M10.8114725,0.2609332 C4.8104298,0.2609332 0.3913998,4.3516924 0.3913998,9.9701734 C0.3913998,15.6181146 4.8104298,19.7930458 10.8114725,19.7930458 C16.8125153,19.7930458 21.2315453,15.592863 21.2315453,9.9701734 C21.2315453,4.3811526 16.8125153,0.2609332 10.8114725,0.2609332 Z M10.8931194,5.008234 C13.4027076,5.008234 15.4211521,7.1083254 15.4211521,9.9996336 C15.4211521,12.8909418 13.4027076,15.045745 10.8931194,15.045745 C8.38395206,15.045745 6.20179296,12.8909418 6.20179296,9.9996336 C6.20179296,7.1083254 8.35659616,5.008234 10.8931194,5.008234 Z"></path>
                    </g>
                    <g transform="translate(44.043873, 0.437300)" id="Rectangle">
                        <rect x="0.04040256" y="0.0042086" width="5.67361366" height="19.1213532"></rect>
                    </g>
                    <g transform="translate(53.193460, 0.437300)" id="Path">
                        <polygon points="18.1403286 19.1238784 18.1403286 0.0042086 12.9578585 0.0042086 12.9578585 10.6982612 4.85630354 0.0042086 0.00126258 0.0042086 0.00126258 19.1238784 5.21108852 19.1238784 5.21108852 8.4887462 13.3126435 19.1238784"></polygon>
                    </g>
                </g>
            </g>
            <g id="Group" transform="translate(34.560316, 23.445860)" fill="#8E9BB2" fill-rule="nonzero">
                <polygon id="Path" points="5.56604714 4.96205528 5.56604714 0.19906484 3.90069982 0.19906484 2.86070741 2.68494772 1.820715 0.19906484 0.15536768 0.19906484 0.15536768 4.96205528 1.52842955 4.96205528 1.52842955 2.35236378 2.34410987 4.50080748 3.37730494 4.50080748 4.19298526 2.35236378 4.19298526 4.96205528"></polygon>
                <path d="M9.76000345,4.28960454 L9.99791021,4.96205528 L11.6768522,4.96205528 L9.73961144,0.19906484 L8.12184547,0.19906484 L6.10983402,4.96205528 L7.72759998,4.96205528 L7.97230408,4.28960454 L9.76000345,4.28960454 Z M9.3725553,3.16076124 L8.38014424,3.16076124 L8.8831471,1.76730736 L9.3725553,3.16076124 Z" id="Shape"></path>
                <path d="M15.1638856,2.45432382 L15.1638856,3.56131854 C14.9327761,3.65842334 14.7016667,3.71911384 14.5385307,3.71911384 C13.9199731,3.71911384 13.4645516,3.24330032 13.4645516,2.58298768 C13.4645516,1.93724076 13.9131757,1.46142724 14.524936,1.46142724 C14.9191815,1.46142724 15.3814003,1.66049208 15.7008751,1.9663722 L16.5913261,0.88365368 C16.0815259,0.4369716 15.2726429,0.15051244 14.5317333,0.15051244 C12.9751434,0.15051244 11.8467856,1.1773957 11.8467856,2.58298768 C11.8467856,3.99829014 12.9343594,5.03002864 14.4297733,5.03002864 C15.1095069,5.03002864 15.9863632,4.77270092 16.5165554,4.4182684 L16.5165554,2.45432382 L15.1638856,2.45432382 Z" id="Path"></path>
                <path d="M20.615349,4.28960454 L20.8532558,4.96205528 L22.5321978,4.96205528 L20.594957,0.19906484 L18.9771911,0.19906484 L16.9651796,4.96205528 L18.5829456,4.96205528 L18.8276497,4.28960454 L20.615349,4.28960454 Z M20.2279009,3.16076124 L19.2354898,3.16076124 L19.7384927,1.76730736 L20.2279009,3.16076124 Z" id="Shape"></path>
                <polygon id="Path" points="27.1951703 1.18467856 27.1951703 0.19906484 22.9536326 0.19906484 22.9536326 1.4080196 25.0947935 1.4080196 22.8720646 3.97644156 22.8720646 4.96205528 27.2427516 4.96205528 27.2427516 3.75310052 24.9724414 3.75310052"></polygon>
                <rect id="Rectangle" x="27.9904586" y="0.19906484" width="1.57698195" height="4.76493254"></rect>
                <polygon id="Path" points="35.1480534 4.96205528 35.1480534 0.19906484 33.7206128 0.19906484 33.7206128 2.64367818 31.8377508 0.19906484 30.5190676 0.19906484 30.5190676 4.96205528 31.9533055 4.96205528 31.9533055 2.52958004 33.8293702 4.96205528"></polygon>
                <polygon id="Path" points="40.1305007 1.39345388 40.1305007 0.19906484 36.0996804 0.19906484 36.0996804 4.96205528 40.1916767 4.96205528 40.1916767 3.76766624 37.6766624 3.76766624 37.6766624 3.17532696 39.9061886 3.17532696 39.9061886 1.9785103 37.6766624 1.9785103 37.6766624 1.39345388"></polygon>
            </g>
        </g>
    </g>
</svg>