<?xml version="1.0" encoding="UTF-8"?>
<svg width="156px" height="29px" viewBox="0 0 156 29" version="1.1" xmlns="http://www.w3.org/2000/svg" xmlns:xlink="http://www.w3.org/1999/xlink">
    <!-- Generator: Sketch 57.1 (83088) - https://sketch.com -->
    <title>bloomberg</title>
    <desc>Created with Sketch.</desc>
    <g id="Assets" stroke="none" stroke-width="1" fill="none" fill-rule="evenodd">
        <g id="bloomberg" fill="#657795" fill-rule="nonzero">
            <path d="M0,0.241666667 L11.41875,0.241666667 C13.59375,0.241666667 15.225,0.785416667 16.4333333,1.69166667 C17.7625,2.77916667 18.4875,4.35 18.4875,6.28333333 C18.4875,8.51875 17.58125,9.90833333 15.76875,10.7541667 L15.76875,10.875 C18.1854167,11.6604167 19.575,13.8354167 19.575,16.4333333 C19.575,18.9104167 18.6083333,20.84375 17.0375,22.0520833 C15.7083333,23.01875 14.0166667,23.4416667 11.7208333,23.4416667 L0,23.4416667 L0,0.241666667 Z M10.2708333,9.30416667 C11.4791667,9.30416667 12.3854167,8.63958333 12.3854167,7.25 C12.3854167,5.92083333 11.4791667,5.25625 10.2104167,5.25625 L6.28333333,5.25625 L6.28333333,9.24375 L10.2708333,9.24375 L10.2708333,9.30416667 Z M10.8145833,18.30625 C12.2041667,18.30625 13.23125,17.4604167 13.23125,15.95 C13.23125,14.31875 12.14375,13.59375 10.8145833,13.59375 L6.34375,13.59375 L6.34375,18.3666667 L10.8145833,18.3666667 L10.8145833,18.30625 Z" id="Shape"></path>
            <polygon id="Path" points="20.6020833 0.241666667 26.5833333 0.241666667 26.5833333 23.5020833 20.6020833 23.5020833"></polygon>
            <path d="M27.7916667,15.225 C27.7916667,9.96875 31.175,6.46458333 36.43125,6.46458333 C41.6875,6.46458333 45.0104167,10.0291667 45.0104167,15.225 C45.0104167,20.48125 41.6875,23.9854167 36.43125,23.9854167 C31.175,23.9854167 27.7916667,20.48125 27.7916667,15.225 Z M39.0291667,15.225 C39.0291667,12.325 38.1229167,10.5125 36.3104167,10.5125 C34.4979167,10.5125 33.6520833,12.325 33.6520833,15.225 C33.6520833,18.125 34.4979167,19.9979167 36.3104167,19.9979167 C38.1229167,19.9375 39.0291667,18.125 39.0291667,15.225 Z" id="Shape"></path>
            <path d="M45.675,15.225 C45.675,9.96875 49.0583333,6.46458333 54.3145833,6.46458333 C59.5708333,6.46458333 62.8333333,9.96875 62.8333333,15.225 C62.8333333,20.48125 59.5104167,23.9854167 54.2541667,23.9854167 C49.0583333,23.9854167 45.675,20.48125 45.675,15.225 Z M56.9125,15.225 C56.9125,12.325 56.00625,10.5125 54.19375,10.5125 C52.38125,10.5125 51.5354167,12.325 51.5354167,15.225 C51.5354167,18.125 52.38125,19.9979167 54.19375,19.9979167 C56.00625,19.9375 56.9125,18.125 56.9125,15.225 Z" id="Shape"></path>
            <path d="M64.0416667,6.8875 L69.6,6.8875 L69.6,9.36458333 L69.7208333,9.36458333 C70.8083333,7.43125 72.31875,6.40416667 74.7354167,6.40416667 C76.85,6.40416667 78.4208333,7.43125 79.20625,9.24375 L79.3270833,9.24375 C80.65625,7.06875 82.4083333,6.40416667 84.4625,6.40416667 C88.3291667,6.40416667 89.9604167,9.24375 89.9604167,13.05 L89.9604167,23.4416667 L84.1604167,23.4416667 L84.1604167,14.0770833 C84.1604167,12.3854167 83.6166667,11.2979167 82.1666667,11.2979167 C80.7166667,11.2979167 79.9916667,12.6270833 79.9916667,14.4395833 L79.9916667,23.4416667 L74.1916667,23.4416667 L74.1916667,14.0770833 C74.1916667,12.3854167 73.6479167,11.2979167 72.1979167,11.2979167 C70.7479167,11.2979167 70.0229167,12.6270833 70.0229167,14.4395833 L70.0229167,23.4416667 L64.0416667,23.4416667 C64.0416667,23.4416667 64.0416667,6.8875 64.0416667,6.8875 Z" id="Path"></path>
            <path d="M97.2708333,21.2666667 L97.2104167,21.2666667 L97.2104167,23.4416667 L91.6520833,23.4416667 L91.6520833,0.241666667 L97.4520833,0.241666667 L97.4520833,8.57916667 L97.5729167,8.57916667 C98.6604167,7.12916667 100.170833,6.34375 102.285417,6.34375 C106.454167,6.34375 108.870833,10.0895833 108.870833,15.1041667 C108.870833,20.7229167 106.272917,23.9854167 101.922917,23.9854167 C100.110417,23.9854167 98.2375,23.1395833 97.2708333,21.2666667 Z M102.889583,15.04375 C102.889583,12.3854167 101.922917,10.6333333 100.170833,10.6333333 C98.3583333,10.6333333 97.2708333,12.3854167 97.2708333,15.04375 C97.2708333,17.7020833 98.41875,19.4541667 100.170833,19.4541667 C101.922917,19.4541667 102.889583,17.7625 102.889583,15.04375 Z" id="Shape"></path>
            <path d="M109.535417,15.1645833 C109.535417,9.96875 112.979167,6.40416667 117.933333,6.40416667 C120.410417,6.40416667 122.283333,7.18958333 123.733333,8.57916667 C125.666667,10.4520833 126.5125,13.3520833 126.452083,16.7354167 L115.335417,16.7354167 C115.577083,18.7895833 116.54375,19.8770833 118.295833,19.8770833 C119.322917,19.8770833 120.229167,19.39375 120.591667,18.30625 L126.210417,18.30625 C125.24375,22.1125 122.283333,23.9854167 118.114583,23.9854167 C112.979167,23.925 109.535417,20.4208333 109.535417,15.1645833 Z M115.335417,13.4125 L120.652083,13.4125 C120.53125,11.41875 119.44375,10.3916667 118.054167,10.3916667 C116.422917,10.33125 115.516667,11.4791667 115.335417,13.4125 Z" id="Shape"></path>
            <path d="M133.0375,9.72708333 L133.158333,9.72708333 C134.366667,7.43125 135.9375,6.525 137.93125,6.525 C138.414583,6.525 138.716667,6.58541667 138.897917,6.70625 L138.897917,11.78125 L138.777083,11.78125 C135.333333,11.1770833 133.339583,12.8083333 133.339583,16.5541667 L133.339583,23.5020833 L127.479167,23.5020833 L127.479167,6.8875 L133.0375,6.8875 L133.0375,9.72708333 Z" id="Path"></path>
            <path d="M139.502083,23.5020833 L145.120833,23.5020833 C145.3625,24.2270833 146.0875,24.8916667 147.477083,24.8916667 C149.35,24.8916667 150.014583,23.74375 150.014583,21.9916667 L150.014583,20.7833333 L149.89375,20.7833333 C148.9875,21.8708333 147.71875,22.65625 145.90625,22.65625 C142.341667,22.65625 139.2,19.9979167 139.2,14.8020833 C139.2,10.0291667 141.7375,6.34375 145.604167,6.34375 C147.839583,6.34375 149.16875,7.25 150.075,8.63958333 L150.195833,8.63958333 L150.195833,6.82708333 L155.754167,6.82708333 L155.754167,21.20625 C155.754167,23.8645833 154.847917,25.91875 153.458333,27.1270833 C152.008333,28.3958333 149.954167,28.9395833 147.597917,28.9395833 C143.127083,29 140.045833,27.1875 139.502083,23.5020833 Z M150.25625,14.5604167 C150.25625,12.50625 149.289583,10.8145833 147.597917,10.8145833 C145.966667,10.8145833 144.939583,12.2645833 144.939583,14.5604167 C144.939583,16.7958333 145.966667,18.3666667 147.597917,18.3666667 C149.229167,18.3666667 150.25625,16.7354167 150.25625,14.5604167 Z" id="Shape"></path>
        </g>
    </g>
</svg>