<svg width="14" height="24" viewBox="0 0 14 24" fill="none" xmlns="http://www.w3.org/2000/svg">
<path d="M0 0V22" transform="translate(7 1)" stroke="#009FFF" stroke-width="2" stroke-linecap="round" stroke-linejoin="round"/>
<path d="M11 0H3.5C2.57174 0 1.6815 0.368749 1.02513 1.02513C0.368749 1.6815 0 2.57174 0 3.5C0 4.42826 0.368749 5.3185 1.02513 5.97487C1.6815 6.63125 2.57174 7 3.5 7H8.5C9.42826 7 10.3185 7.36875 10.9749 8.02513C11.6313 8.6815 12 9.57174 12 10.5C12 11.4283 11.6313 12.3185 10.9749 12.9749C10.3185 13.6313 9.42826 14 8.5 14H0" transform="translate(1 5)" stroke="#009FFF" stroke-width="2" stroke-linecap="round" stroke-linejoin="round"/>
</svg>
