<?xml version="1.0" encoding="UTF-8"?>
<svg width="221px" height="32px" viewBox="0 0 221 32" version="1.1" xmlns="http://www.w3.org/2000/svg" xmlns:xlink="http://www.w3.org/1999/xlink">
    <!-- Generator: Sketch 57.1 (83088) - https://sketch.com -->
    <title>financial-post</title>
    <desc>Created with Sketch.</desc>
    <g id="Assets" stroke="none" stroke-width="1" fill="none" fill-rule="evenodd">
        <g id="financial-post" fill-rule="nonzero">
            <rect id="Rectangle" fill="#657795" x="0.772413793" y="0.625287356" width="219.770115" height="30.7494253"></rect>
            <path d="M1.2137931,1.10344828 L220.027586,1.10344828 L220.027586,30.9333333 L1.2137931,30.9333333 L1.2137931,1.10344828 Z M0.294252874,0.183908046 L0.294252874,1.10344828 L0.294252874,30.9333333 L0.294252874,31.8528736 L1.2137931,31.8528736 L220.027586,31.8528736 L220.947126,31.8528736 L220.947126,0.147126437 L0.294252874,0.147126437 L0.294252874,0.183908046 Z" id="Shape" fill="#FFFFFF"></path>
            <g id="Group" transform="translate(4.781609, 2.574713)" fill="#FFFFFF">
                <path d="M14.1977011,0.735632184 L14.1977011,6.8045977 L13.7931034,6.8045977 C13.5356322,5.14942529 12.0275862,1.76551724 11.0344828,1.54482759 C10.4827586,1.43448276 9.89425287,1.39770115 9.15862069,1.39770115 L6.54712644,1.39770115 L6.54712644,12.8367816 L8.3862069,12.8367816 C9.67356322,12.8367816 10.2252874,12.137931 10.5195402,11.6597701 C10.8505747,11.108046 11.2551724,9.01149425 11.3287356,8.0183908 L11.8436782,8.0183908 L11.8436782,18.4643678 L11.3287356,18.4643678 C11.291954,17.3977011 10.7770115,15.1172414 10.5195402,14.6390805 C10.2252874,14.1241379 9.63678161,13.462069 8.3862069,13.462069 L6.54712644,13.462069 L6.54712644,23.5770115 C6.54712644,24.3862069 6.8045977,24.4229885 7.39310345,24.8275862 C7.87126437,25.1218391 9.41609195,25.7471264 10.1149425,25.8942529 L10.1149425,26.262069 L0.331034483,26.262069 L0.331034483,25.8942529 C0.882758621,25.783908 2.50114943,25.1218391 3.05287356,24.8275862 C3.6045977,24.5333333 3.89885057,24.4229885 3.89885057,23.5770115 L3.89885057,3.42068966 C3.89885057,2.61149425 3.64137931,2.50114943 3.05287356,2.17011494 C2.53793103,1.91264368 0.956321839,1.25057471 0.331034483,1.10344828 L0.331034483,0.735632184 L14.1977011,0.735632184 L14.1977011,0.735632184 Z" id="Path"></path>
                <path d="M18.2804598,2.20689655 C17.7655172,1.94942529 16.183908,1.28735632 15.5586207,1.14022989 L15.5586207,0.772413793 L25.3793103,0.772413793 L25.3793103,1.14022989 C24.8643678,1.25057471 23.1724138,1.91264368 22.6574713,2.20689655 C22.1057471,2.53793103 21.8114943,2.61149425 21.8114943,3.45747126 L21.8114943,23.6137931 C21.8114943,24.3862069 22.1057471,24.4965517 22.6574713,24.8643678 C23.1356322,25.1586207 24.754023,25.783908 25.3793103,25.9310345 L25.3793103,26.2988506 L15.5586207,26.2988506 L15.5586207,25.9310345 C16.0735632,25.8206897 17.7287356,25.1586207 18.2804598,24.8643678 C18.8321839,24.5701149 19.1264368,24.4597701 19.1264368,23.6137931 L19.1264368,3.45747126 C19.1264368,2.61149425 18.8321839,2.50114943 18.2804598,2.20689655" id="Path"></path>
                <path d="M41.5264368,2.61149425 C40.937931,3.23678161 40.7908046,4.85517241 40.7908046,7.31954023 L40.7908046,26.5563218 L40.091954,26.5563218 L30.5287356,6.25287356 L30.5287356,19.3471264 C30.5287356,22.4367816 30.6390805,23.5770115 30.9333333,24.091954 C31.2643678,24.6436782 33.1770115,25.6367816 34.1701149,25.9310345 L34.1701149,26.2988506 L26.1149425,26.2988506 L26.1149425,25.9310345 C26.9241379,25.6735632 28.9103448,24.6804598 29.2413793,24.1287356 C29.5356322,23.6137931 29.645977,22.4367816 29.645977,19.5310345 L29.645977,6.17931034 C29.645977,4.63448276 29.3885057,3.56781609 28.9471264,2.97931034 C28.4321839,2.28045977 26.9977011,1.50804598 25.8206897,1.14022989 L25.8206897,0.772413793 L30.8597701,0.772413793 L39.9448276,20.4505747 L39.9448276,7.57701149 C39.9448276,4.89195402 39.6873563,3.2 39.2091954,2.68505747 C38.4,1.87586207 36.9655172,1.32413793 36.1931034,1.14022989 L36.1931034,0.772413793 L44.3586207,0.772413793 L44.3586207,1.14022989 C43.5862069,1.28735632 42.3356322,1.72873563 41.5264368,2.61149425" id="Path"></path>
                <path d="M52.5241379,26.2988506 L52.5241379,25.8574713 C53.2965517,25.6735632 55.6873563,24.8275862 55.6873563,24.1287356 C55.6873563,23.8712644 55.6137931,23.3195402 55.5402299,22.9885057 L54.4,18.0597701 L48.0735632,18.0597701 C47.6689655,19.7885057 47.5218391,20.2298851 47.3011494,21.3701149 C47.154023,22.1793103 47.0436782,22.7678161 47.0436782,23.6505747 C47.0436782,24.6804598 49.4344828,25.7471264 50.0965517,25.8574713 L50.0965517,26.2988506 L42.3356322,26.2988506 L42.3356322,25.8574713 C42.7402299,25.8206897 44.3218391,24.937931 44.7264368,24.5333333 C45.2413793,24.0183908 45.8666667,23.1356322 46.1977011,21.8482759 C47.8896552,15.4114943 49.8390805,7.46666667 51.5310345,0.331034483 L52.708046,0.331034483 C55.0988506,9.93103448 57.416092,19.4942529 58.2988506,22.9517241 C58.5563218,23.9816092 58.6666667,24.091954 59.5126437,24.6804598 C59.9172414,24.9747126 61.1310345,25.6367816 61.7563218,25.8206897 L61.7563218,26.262069 L52.5241379,26.262069 L52.5241379,26.2988506 Z M51.2735632,4.7816092 L48.3310345,17.2873563 L54.2896552,17.2873563 L51.2735632,4.7816092 Z" id="Shape"></path>
                <path d="M77.2781609,2.61149425 C76.6896552,3.23678161 76.5425287,4.85517241 76.5425287,7.31954023 L76.5425287,26.5563218 L75.8436782,26.5563218 L66.2804598,6.25287356 L66.2804598,19.3471264 C66.2804598,22.4367816 66.3908046,23.5770115 66.6850575,24.091954 C67.016092,24.6436782 68.9287356,25.6367816 69.9218391,25.9310345 L69.9218391,26.2988506 L61.8666667,26.2988506 L61.8666667,25.9310345 C62.6758621,25.6735632 64.662069,24.6804598 64.9931034,24.1287356 C65.2873563,23.6137931 65.3977011,22.4367816 65.3977011,19.5310345 L65.3977011,6.17931034 C65.3977011,4.63448276 65.1402299,3.56781609 64.6988506,2.97931034 C64.183908,2.28045977 62.7494253,1.50804598 61.5724138,1.14022989 L61.5724138,0.772413793 L66.6114943,0.772413793 L75.6965517,20.4505747 L75.6965517,7.57701149 C75.6965517,4.89195402 75.4390805,3.2 74.9609195,2.68505747 C74.1517241,1.87586207 72.7172414,1.32413793 71.9448276,1.14022989 L71.9448276,0.772413793 L80.1103448,0.772413793 L80.1103448,1.14022989 C79.337931,1.28735632 78.1241379,1.72873563 77.2781609,2.61149425" id="Path"></path>
                <path d="M87.8344828,26.8873563 C83.016092,26.8873563 80.4413793,21.8850575 80.4413793,13.8298851 C80.4413793,5.1862069 83.6781609,0.147126437 87.8344828,0.147126437 C89.5632184,0.147126437 90.7402299,1.39770115 91.2183908,2.42758621 L92.2482759,0.331034483 L92.7264368,0.331034483 L92.8,9.56321839 L92.2114943,9.56321839 C91.4390805,4.74482759 90.2988506,0.735632184 87.7977011,0.735632184 C84.6344828,0.735632184 83.4574713,5.55402299 83.4574713,13.5356322 C83.4574713,21.0390805 84.3770115,25.5632184 88.1287356,25.5632184 C90.7402299,25.5632184 92.2482759,22.8781609 92.983908,19.3471264 L93.6827586,19.5310345 C93.0206897,23.4666667 91.2551724,26.8873563 87.8344828,26.8873563" id="Path"></path>
                <path d="M97.7655172,2.20689655 C97.2505747,1.94942529 95.6689655,1.28735632 95.0436782,1.14022989 L95.0436782,0.772413793 L104.827586,0.772413793 L104.827586,1.14022989 C104.312644,1.25057471 102.62069,1.91264368 102.105747,2.20689655 C101.554023,2.53793103 101.25977,2.61149425 101.25977,3.45747126 L101.25977,23.6137931 C101.25977,24.3862069 101.554023,24.4965517 102.105747,24.8643678 C102.583908,25.1586207 104.202299,25.783908 104.827586,25.9310345 L104.827586,26.2988506 L95.0068966,26.2988506 L95.0068966,25.9310345 C95.5218391,25.8206897 97.1770115,25.1586207 97.7287356,24.8643678 C98.2804598,24.5701149 98.5747126,24.4597701 98.5747126,23.6137931 L98.5747126,3.45747126 C98.6114943,2.61149425 98.3172414,2.50114943 97.7655172,2.20689655" id="Path"></path>
                <path d="M115.42069,26.2988506 L115.42069,25.8574713 C116.193103,25.6735632 118.583908,24.8275862 118.583908,24.1287356 C118.583908,23.8712644 118.510345,23.3195402 118.436782,22.9885057 L117.296552,18.0597701 L110.970115,18.0597701 C110.565517,19.7885057 110.418391,20.2298851 110.197701,21.3701149 C110.050575,22.1793103 109.94023,22.7678161 109.94023,23.6505747 C109.94023,24.6804598 112.331034,25.7471264 112.993103,25.8574713 L112.993103,26.2988506 L105.232184,26.2988506 L105.232184,25.8574713 C105.636782,25.8206897 107.218391,24.937931 107.622989,24.5333333 C108.137931,24.0183908 108.726437,23.1356322 109.094253,21.8482759 C110.786207,15.4114943 112.735632,7.46666667 114.427586,0.331034483 L115.604598,0.331034483 C117.995402,9.93103448 120.312644,19.4942529 121.195402,22.9517241 C121.452874,23.9816092 121.563218,24.091954 122.409195,24.6804598 C122.813793,24.9747126 124.027586,25.6367816 124.652874,25.8206897 L124.652874,26.262069 L115.42069,26.262069 L115.42069,26.2988506 Z M114.206897,4.7816092 L111.264368,17.2873563 L117.222989,17.2873563 L114.206897,4.7816092 Z" id="Shape"></path>
                <path d="M128.22069,2.20689655 C127.77931,2.02298851 125.903448,1.36091954 125.278161,1.2137931 L125.278161,0.735632184 L135.54023,0.735632184 L135.54023,1.17701149 C135.025287,1.28735632 133.03908,1.9862069 132.597701,2.17011494 C132.009195,2.42758621 131.751724,2.57471264 131.751724,3.42068966 L131.751724,22.216092 C131.751724,25.5632184 131.898851,25.6735632 134.436782,25.6735632 C137.82069,25.6735632 138.041379,25.5632184 138.556322,24.6436782 C139.144828,23.6137931 140.395402,20.4137931 140.8,19.1264368 L141.204598,19.1264368 L140.873563,26.2988506 L125.314943,26.2988506 L125.314943,25.9310345 C125.829885,25.8206897 127.816092,25.1218391 128.257471,24.937931 C128.845977,24.6804598 129.103448,24.5333333 129.103448,23.6873563 L129.103448,3.45747126 C129.103448,2.61149425 128.845977,2.46436782 128.22069,2.20689655" id="Path"></path>
                <path d="M164.818391,7.39310345 C164.818391,12.4689655 161.14023,14.5655172 157.535632,14.5655172 L155.43908,14.5655172 L155.43908,23.5770115 C155.43908,24.3862069 155.696552,24.4229885 156.285057,24.8275862 C156.763218,25.1218391 158.308046,25.7471264 159.006897,25.8942529 L159.006897,26.262069 L149.186207,26.262069 L149.186207,25.8942529 C149.737931,25.783908 151.356322,25.1218391 151.908046,24.8275862 C152.45977,24.5333333 152.754023,24.4229885 152.754023,23.5770115 L152.754023,3.42068966 C152.754023,2.61149425 152.496552,2.50114943 151.908046,2.17011494 C151.393103,1.91264368 149.811494,1.25057471 149.186207,1.10344828 L149.186207,0.735632184 L158.16092,0.735632184 C162.390805,0.735632184 164.818391,3.53103448 164.818391,7.39310345 M156.947126,1.39770115 L155.43908,1.39770115 L155.43908,13.8666667 L156.910345,13.8666667 C160.367816,13.8666667 161.83908,10.8873563 161.83908,7.72413793 C161.83908,4.56091954 160.662069,1.39770115 156.947126,1.39770115" id="Shape"></path>
                <path d="M178.758621,24.0183908 C177.618391,25.8206897 176.073563,26.8873563 173.756322,26.8873563 C171.733333,26.8873563 170.041379,25.783908 168.937931,24.091954 C167.429885,21.7747126 166.583908,17.8758621 166.583908,13.7931034 C166.583908,9.71034483 167.356322,5.84827586 168.790805,3.45747126 C170.041379,1.39770115 171.65977,0.110344828 173.866667,0.110344828 C175.963218,0.110344828 177.618391,1.17701149 178.942529,3.45747126 C180.266667,5.62758621 181.112644,9.67356322 181.112644,13.3517241 C181.112644,17.2137931 180.377011,21.3701149 178.758621,24.0183908 M173.829885,0.735632184 C170.629885,0.735632184 169.563218,5.07586207 169.563218,13.6091954 C169.563218,21.9586207 170.445977,26.2988506 173.829885,26.2988506 C177.066667,26.2988506 178.022989,21.8114943 178.022989,13.462069 C178.022989,5.07586207 177.103448,0.735632184 173.829885,0.735632184" id="Shape"></path>
                <path d="M189.756322,26.7770115 C187.696552,26.7770115 186.335632,25.6735632 185.673563,24.754023 L184.643678,26.2988506 L184.165517,26.2988506 L183.944828,17.9126437 L184.386207,17.9126437 C185.563218,23.5770115 187.328736,26.1885057 189.793103,26.1885057 C191.852874,26.1885057 193.103448,24.3862069 193.103448,21.4804598 C193.103448,19.5310345 191.816092,17.508046 190.675862,16.2574713 C189.645977,15.154023 188.468966,14.0873563 187.512644,13.1678161 C185.857471,11.5494253 183.981609,9.1954023 183.981609,5.88505747 C183.981609,1.91264368 186.666667,0.294252874 189.241379,0.294252874 C190.491954,0.294252874 191.816092,0.91954023 192.772414,2.13333333 L193.83908,0.772413793 L194.206897,0.772413793 L194.206897,8.42298851 L193.802299,8.42298851 C192.772414,3.93563218 191.705747,0.882758621 189.278161,0.882758621 C187.512644,0.882758621 186.262069,2.35402299 186.262069,5.00229885 C186.262069,7.02528736 187.255172,8.7908046 188.432184,9.89425287 C189.425287,10.8505747 190.63908,12.0275862 191.521839,12.9103448 C193.397701,14.7862069 195.604598,16.845977 195.604598,20.5241379 C195.567816,25.0482759 192.625287,26.7770115 189.756322,26.7770115" id="Path"></path>
                <path d="M211.347126,7.42988506 L210.942529,7.42988506 C209.508046,1.72873563 209.434483,1.65517241 207.558621,1.47126437 C207.117241,1.43448276 206.63908,1.39770115 205.793103,1.39770115 L205.204598,1.39770115 L205.204598,23.5770115 C205.204598,24.3862069 205.462069,24.4597701 206.050575,24.8275862 C206.528736,25.0850575 208.147126,25.7471264 208.772414,25.9310345 L208.772414,26.2988506 L198.988506,26.2988506 L198.988506,25.9310345 C199.503448,25.8206897 201.085057,25.1954023 201.710345,24.8275862 C202.262069,24.5333333 202.556322,24.4229885 202.556322,23.5770115 L202.556322,1.39770115 L202.004598,1.39770115 C201.195402,1.39770115 200.68046,1.43448276 200.23908,1.47126437 C198.4,1.65517241 198.289655,1.69195402 196.855172,7.42988506 L196.450575,7.42988506 L196.450575,0.735632184 L211.310345,0.735632184 L211.310345,7.42988506 L211.347126,7.42988506 Z" id="Path"></path>
            </g>
        </g>
    </g>
</svg>