<?xml version="1.0" encoding="UTF-8"?>
<svg width="113px" height="30px" viewBox="0 0 113 30" version="1.1" xmlns="http://www.w3.org/2000/svg" xmlns:xlink="http://www.w3.org/1999/xlink">
    <!-- Generator: Sketch 57.1 (83088) - https://sketch.com -->
    <title>forbes</title>
    <desc>Created with Sketch.</desc>
    <g id="Assets" stroke="none" stroke-width="1" fill="none" fill-rule="evenodd">
        <g id="forbes" fill="#657795" fill-rule="nonzero">
            <path d="M32.9152351,28.7851962 C34.3458201,28.4512493 35.486206,27.9414286 36.5056209,27.1800765 C38.9851127,25.3282652 40.3437697,22.4888239 40.4692251,18.896587 C40.5929018,15.3552637 39.5248857,12.3364914 37.4597003,10.3900954 C35.783292,8.81011483 33.6707525,8.05276887 30.9399671,8.05276887 C28.0452183,8.05276887 25.7139659,8.95030162 23.9204234,10.7552934 C21.9992229,12.6887583 20.983004,15.3859416 20.983004,18.5516028 C20.983004,21.8356036 21.901123,24.4866494 23.6816981,26.3440117 C24.6634063,27.3680575 25.6190426,27.9821893 26.9894311,28.4697008 C27.473945,28.6420659 27.8304519,28.7248223 29.1259455,28.9656551 C29.2368024,28.9862632 29.9805512,28.9900839 30.7787207,28.9741463 C31.8592536,28.9525691 32.4049839,28.9043057 32.9152351,28.7851962 L32.9152351,28.7851962 Z M29.8561867,27.6394239 C28.5318558,27.0386441 27.5927626,25.2125983 27.1221103,22.3230723 C26.8237521,20.4913313 26.7955743,16.4179393 27.0674542,14.4220003 C27.4492542,11.6191112 28.2557706,9.96317309 29.5115476,9.40379412 C30.3723146,9.02037042 31.5652104,9.24720616 32.3322311,9.94016323 C34.0357071,11.4791518 34.8955057,15.8553612 34.5245432,21.0986166 C34.2583464,24.8611038 33.4417964,26.9017588 31.9186971,27.6109373 C31.3665484,27.8680269 30.3898437,27.8815159 29.8561867,27.6394239 L29.8561867,27.6394239 Z M67.865385,28.8929281 C70.3145263,28.5256073 72.1109688,27.6845583 73.6323428,26.1929851 C75.8314619,24.0369414 76.8906828,20.9940386 76.7475113,17.2438118 C76.6737992,15.3129905 76.3584577,14.0517239 75.5582259,12.4870439 C74.4741037,10.3672774 72.6199011,8.88039084 70.514579,8.44254003 C68.9353321,8.11409892 66.9033836,8.37135137 65.3584684,9.09532257 C64.9734581,9.27574516 64.604911,9.42336298 64.5394756,9.42336298 C64.4356071,9.42336298 64.4243521,8.82634186 64.4508239,4.72077338 L64.4811455,0.0181835409 L64.1576861,0.0830215112 C63.979783,0.118682758 62.165326,0.456763177 60.1255594,0.834311063 C58.0857929,1.21185895 56.3373333,1.53941724 56.2400928,1.56221909 C56.0922952,1.59687577 56.066399,1.6532096 56.082227,1.90563273 C56.0998665,2.18694233 56.1229796,2.21238943 56.4202735,2.27780627 C57.4423207,2.50270061 57.6242986,2.58284086 58.0043119,2.97539676 C58.4698406,3.45628905 58.6801156,4.07037084 58.8180764,5.35189247 C58.9280109,6.37308022 58.9523873,23.966875 58.8474659,26.5637961 L58.785253,28.1036441 L59.6166522,28.2814343 C62.7647819,28.9546436 65.90282,29.1872721 67.865385,28.8929281 L67.865385,28.8929281 Z M64.9892425,27.66646 C64.826332,27.6492672 64.6520263,27.5857796 64.6018965,27.5253767 C64.4637027,27.3588633 64.3140152,16.4144991 64.4061401,13.2126526 L64.4792113,10.6730223 L65.1241968,10.487077 C66.0757914,10.2127381 67.1002477,10.2553813 67.8265158,10.5995617 C69.2850174,11.2907491 70.2431691,12.9981208 70.7407706,15.7925945 C70.902857,16.7028544 70.8789055,19.8644095 70.7013998,20.9894101 C70.3307557,23.3384866 69.6563331,25.1515295 68.7174633,26.3228062 C68.262322,26.8906135 67.5064668,27.4276703 66.9154633,27.6031797 C66.5341584,27.716415 65.7169723,27.7432609 64.9892425,27.66646 L64.9892425,27.66646 Z M90.0748565,28.890295 C91.9429521,28.5873405 93.7825232,27.6907171 95.1046547,26.4387342 C95.8288767,25.7529325 96.0690612,25.4219848 95.9683548,25.2486296 C95.6995974,24.7859945 95.7112152,24.7864943 95.024991,25.2080415 C93.9324098,25.8792094 93.3847446,26.0642565 92.1010622,26.1959867 C90.6016323,26.3498585 89.2185496,26.0992526 87.9405593,25.4421309 C87.0927662,25.0062102 86.076777,24.0035674 85.568988,23.1017294 C84.8760318,21.8710213 84.5000294,20.4334076 84.3878907,18.5859419 C84.3408067,17.8102049 84.3510136,17.616931 84.4421339,17.5592306 C84.504238,17.5199034 87.1925777,17.4875985 90.4600338,17.4869157 L96.3656819,17.4856821 L96.3656819,17.2523546 C96.3656819,16.7220927 96.1916246,15.2967667 96.0356106,14.5494841 C95.4082978,11.544721 93.7520799,9.40215425 91.3904414,8.54026178 C90.4504557,8.19721175 89.5612304,8.05276967 88.3892837,8.05276967 C85.612452,8.05276967 83.3445864,8.96361089 81.590234,10.783468 C80.1915007,12.2344338 79.361606,13.8643983 78.8551231,16.1553996 C78.7024712,16.8458831 78.6768814,17.2047031 78.6768814,18.6547183 C78.6768814,20.0940025 78.7029871,20.465203 78.8509952,21.1309521 C79.7911341,25.3596381 82.5730789,28.1443862 86.5699652,28.8577151 C87.5828745,29.0384909 89.0754999,29.0523661 90.0748565,28.8902958 L90.0748565,28.890295 Z M84.4049263,16.1341634 C84.3442655,16.0360144 84.4947567,14.6009491 84.6436596,13.8576381 C85.0025537,12.0660063 85.5771955,10.7722235 86.3679235,9.97553504 C86.7932591,9.54699621 86.9873353,9.41340521 87.3342165,9.31039378 C87.5729418,9.23949859 87.8433116,9.1816958 87.9350366,9.18194252 C88.3049841,9.18294304 88.7415103,9.37170932 89.0664056,9.67118413 C89.938426,10.4749884 90.4373787,12.2010929 90.5362469,14.7560641 L90.5850561,16.0172945 L89.7465428,16.0640197 C88.0634693,16.1578078 84.448874,16.2052731 84.4049263,16.1341634 L84.4049263,16.1341634 Z M106.44358,28.8975245 C109.868993,28.3773018 112.080575,26.5404976 112.660708,23.733978 C112.940833,22.3787749 112.810102,20.871797 112.324993,19.8640652 C111.645807,18.4531861 110.497378,17.6014054 107.652928,16.3988316 C105.540342,15.5056759 104.27397,14.7485516 103.755345,14.0685983 C103.326889,13.5068684 103.187605,13.0749579 103.193321,12.3257976 C103.201947,11.1958379 103.630282,10.3304012 104.447979,9.79079105 C105.13259,9.33900936 105.990478,9.22879183 106.989334,9.46429053 C108.196417,9.74888473 109.104129,10.4897424 109.923889,11.8594183 C110.184762,12.2952906 110.721123,13.5188788 110.982302,14.2739407 C111.022823,14.391091 111.06948,14.3960187 111.35104,14.3128849 C111.528331,14.2605371 111.698293,14.1927967 111.728744,14.1623518 C111.759187,14.131906 111.757188,12.9769233 111.72431,11.5957248 L111.664503,9.08445376 L111.37197,8.96058994 C110.878306,8.75157192 109.5899,8.40107956 108.741357,8.24497534 C108.102813,8.12750414 107.541063,8.09708824 106.04048,8.0986758 C104.249347,8.1007058 104.103089,8.11242035 103.363323,8.31311725 C101.214489,8.89609543 99.6213187,10.1087528 98.7887875,11.795085 C98.3463275,12.6913044 98.1934337,13.3821201 98.1984646,14.4623119 C98.2055594,15.9960261 98.6235584,17.1281683 99.5477984,18.1173293 C100.343049,18.9684424 101.376937,19.5756721 103.138045,20.2259835 C104.523885,20.7377206 105.954479,21.4522331 106.496678,21.9034617 C106.815349,22.1686571 107.065725,22.4707861 107.252448,22.8154494 C107.517989,23.3055787 107.531695,23.370411 107.531848,24.1370939 C107.531848,24.8757224 107.510547,24.9886247 107.276079,25.4835583 C106.663463,26.7767018 105.437919,27.4187421 103.832679,27.2874843 C101.651443,27.1091289 100.11591,25.6667084 98.8656859,22.6216724 C98.5395732,21.8274107 98.5172406,21.8109482 98.0214725,21.9994388 L97.7938975,22.0859636 L97.8508255,24.9255508 C97.901352,27.4457363 97.9229671,27.7767993 98.0429586,27.8688178 C98.4014496,28.1437275 100.721986,28.6945016 102.331814,28.8867693 C103.581473,29.0360206 105.498644,29.0410353 106.443596,28.8975245 L106.44358,28.8975245 Z M15.4200043,28.0070067 C15.4200043,27.7631216 15.3982183,27.5635792 15.3715917,27.5635792 C14.9874416,27.5635792 13.1973272,27.1775715 12.9095717,27.032686 C11.8858089,26.5172209 11.4125476,25.291988 11.2289121,22.681602 C11.0983735,20.8259917 10.9684743,15.3744842 11.0527876,15.2901709 C11.1292401,15.2137184 14.5379093,15.3495419 14.9362652,15.4449134 C16.0377367,15.7086206 16.8867392,16.7921107 17.3118523,18.4766168 L17.4992246,19.2190798 L17.9914549,19.2430829 L18.4836853,19.2670852 L18.4836853,14.5870941 L18.4836853,9.90710208 L17.9596346,9.90710208 C17.4697044,9.90710208 17.4355839,9.9189295 17.4355839,10.0887606 C17.4355839,10.3942403 17.1297705,11.3608945 16.8402752,11.9704888 C16.3868585,12.9252559 15.7482842,13.5015505 14.9362652,13.688801 C14.7367228,13.7348151 13.7947998,13.8085168 12.8431027,13.852583 C11.5008404,13.9147322 11.0981075,13.910722 11.0474826,13.8347024 C10.9539145,13.6941971 11.1671959,3.07924425 11.2734976,2.58601258 L11.3135705,2.40007536 L14.2737982,2.42476621 L17.2340259,2.44945787 L17.9228841,2.69615836 C19.518458,3.26758162 20.6665644,4.43446191 21.6257868,6.45961147 C21.8412902,6.91459147 22.1175084,7.57709233 22.2396033,7.93183409 C22.3616983,8.2865761 22.469739,8.58809955 22.4796927,8.60188611 C22.4896473,8.61567268 22.7544711,8.54898763 23.0681912,8.45369828 L23.6385913,8.2804447 L23.5984821,5.64713295 C23.576422,4.19881083 23.5374423,2.46054356 23.5118598,1.78431661 L23.4653458,0.554813061 L12.2230532,0.554813061 L0.980760231,0.554813061 L1.0047632,1.0583516 L1.0287661,1.56189014 L1.75437475,1.65264605 C2.72234305,1.77371546 3.07725953,1.87917059 3.46704037,2.16152668 C4.05789519,2.58953904 4.42126855,3.21830715 4.65008698,4.20862429 C5.00557959,5.74718793 5.13352536,9.216937 5.07426893,15.7119713 C5.01165616,22.5748166 4.92510072,24.0021678 4.48758177,25.3867533 C4.12774437,26.5255066 3.45801533,27.1291678 2.35178463,27.3118575 C2.04732521,27.3621382 1.61602432,27.442351 1.39333825,27.4901089 L0.988454505,27.5769409 L0.988454505,28.0136872 L0.988454505,28.4504342 L8.20422941,28.4504342 L15.4200043,28.4504342 L15.4200043,28.0070067 L15.4200043,28.0070067 Z M52.5872918,28.0138855 L52.5872918,27.5773368 L51.9624621,27.5245729 C50.5213147,27.4028754 50.1264892,27.258206 49.748019,26.7131683 C49.1995726,25.9233457 49.0801833,24.4658809 49.0801833,18.5604311 L49.0801833,13.9512472 L49.2800482,13.7385028 C49.5322335,13.4700671 50.3205654,13.0955047 50.8780174,12.9792549 C52.00995,12.7432056 53.4570329,12.947125 54.5887607,13.5021648 C54.9135706,13.6614633 55.1929331,13.7781896 55.2095665,13.7615562 C55.242901,13.7282217 57.1017394,8.81608095 57.1594237,8.60889065 C57.185602,8.51486467 57.0785038,8.43294346 56.7658285,8.30782353 C56.0966319,8.04003685 55.5162869,7.94820543 54.7676902,7.99164521 C52.765357,8.10783772 50.9883446,9.43809122 49.7083823,11.7789918 C49.4959007,12.1675947 49.2758252,12.4858806 49.2193244,12.4862933 C49.1372428,12.4868577 49.1276905,12.04046 49.1717971,10.2651222 L49.226999,8.04320131 L49.032656,8.08902108 C48.9257682,8.11422227 47.3145356,8.44064458 45.4521401,8.81440398 C41.4578031,9.61601692 40.9025997,9.73283588 40.8073555,9.79169967 C40.7679364,9.81606238 40.7356839,9.96014407 40.7356839,10.1118817 C40.7356839,10.4163205 40.7001186,10.3986713 41.6077413,10.5446396 C42.8553431,10.7452865 43.2960335,11.3536247 43.4820884,13.1320294 C43.7246763,15.4507965 43.6277382,24.4900582 43.3470494,25.7241524 C43.2035385,26.3551199 42.8327114,26.9628309 42.4594349,27.1787736 C42.3211001,27.258801 41.8857349,27.387191 41.4919567,27.4640846 L40.7759955,27.6038908 L40.7516263,28.0271625 L40.7272571,28.4504342 L46.6572745,28.4504342 L52.5872918,28.4504342 L52.5872918,28.0138855 L52.5872918,28.0138855 Z" id="path2995"></path>
        </g>
    </g>
</svg>