<?xml version="1.0" encoding="UTF-8"?>
<svg width="110px" height="27px" viewBox="0 0 110 27" version="1.1" xmlns="http://www.w3.org/2000/svg" xmlns:xlink="http://www.w3.org/1999/xlink">
    <!-- Generator: Sketch 57.1 (83088) - https://sketch.com -->
    <title>google-play-us</title>
    <desc>Created with Sketch.</desc>
    <defs>
        <linearGradient x1="61.2982553%" y1="95.0507787%" x2="25.9433758%" y2="28.0993064%" id="linearGradient-1">
            <stop stop-color="#00A0FF" offset="0%"></stop>
            <stop stop-color="#00A1FF" offset="0.6599999%"></stop>
            <stop stop-color="#00BEFF" offset="26.01%"></stop>
            <stop stop-color="#00D2FF" offset="51.22%"></stop>
            <stop stop-color="#00DFFF" offset="76.04%"></stop>
            <stop stop-color="#00E3FF" offset="100%"></stop>
        </linearGradient>
        <linearGradient x1="107.571126%" y1="49.9957534%" x2="-130.484313%" y2="49.9957534%" id="linearGradient-2">
            <stop stop-color="#FFE000" offset="0%"></stop>
            <stop stop-color="#FFBD00" offset="40.87%"></stop>
            <stop stop-color="#FFA500" offset="77.54%"></stop>
            <stop stop-color="#FF9C00" offset="100%"></stop>
        </linearGradient>
        <linearGradient x1="36.237251%" y1="48.2767368%" x2="-100.135939%" y2="-54.4021189%" id="linearGradient-3">
            <stop stop-color="#FF3A44" offset="0%"></stop>
            <stop stop-color="#C31162" offset="100%"></stop>
        </linearGradient>
        <linearGradient x1="-68.7798646%" y1="130.76971%" x2="-7.88739747%" y2="84.9444136%" id="linearGradient-4">
            <stop stop-color="#32A071" offset="0%"></stop>
            <stop stop-color="#2DA771" offset="6.85%"></stop>
            <stop stop-color="#15CF74" offset="47.62%"></stop>
            <stop stop-color="#06E775" offset="80.09%"></stop>
            <stop stop-color="#00F076" offset="100%"></stop>
        </linearGradient>
    </defs>
    <g id="Assets" stroke="none" stroke-width="1" fill="none" fill-rule="evenodd">
        <g id="google-play-us" transform="translate(-0.000000, 0.000000)" fill-rule="nonzero">
            <path d="M32.5727136,6.71633571 C31.7432916,6.71633571 31.0273231,6.42774531 30.4424318,5.85827494 C29.8586421,5.28329713 29.5634428,4.5651256 29.5634428,3.7224857 C29.5634428,2.8787443 29.8597436,2.16167426 30.4424318,1.59110241 C31.0251201,1.01942906 31.7421901,0.728635682 32.5727136,0.728635682 C32.975859,0.728635682 33.3756999,0.810145947 33.7612214,0.970963498 C34.1434385,1.13178105 34.4496527,1.34877459 34.6732552,1.6142337 L34.7173148,1.66710522 L34.1192057,2.26411284 L34.0663342,2.2024294 C33.7006395,1.77615274 33.2126794,1.5701741 32.5727136,1.5701741 C32.0010403,1.5701741 31.4987608,1.77064529 31.0801946,2.16718172 C30.6649328,2.56481963 30.4545482,3.08802741 30.4545482,3.7224857 C30.4545482,4.36024845 30.6649328,4.88455772 31.0801946,5.28219564 C31.5031668,5.67763057 32.0065477,5.87810177 32.5727136,5.87810177 C33.1818377,5.87810177 33.6940305,5.67652908 34.0982774,5.27778968 C34.3461127,5.0310559 34.4915093,4.70281186 34.5410764,4.27433222 L32.4978123,4.27433222 L32.4978123,3.45151914 L35.3693969,3.45151914 L35.3826148,3.50989811 C35.412355,3.6442799 35.4266744,3.78306765 35.4266744,3.94829116 C35.4266744,4.74136401 35.1843466,5.38683719 34.7051984,5.86598537 C34.1577579,6.42994829 33.4406878,6.71633571 32.5727136,6.71633571 Z" id="Path" fill="#002237"></path>
            <polygon id="Path" fill="#002237" points="39.7665453 6.58856286 36.3188814 6.58856286 36.3188814 0.85751002 39.7665453 0.85751002 39.7665453 1.69354098 37.196769 1.69354098 37.196769 3.3116299 39.5143041 3.3116299 39.5143041 4.13444298 37.196769 4.13444298 37.196769 5.7525319 39.7665453 5.7525319"></polygon>
            <polygon id="Path" fill="#002237" points="42.8297892 6.58856286 41.9519016 6.58856286 41.9519016 1.69354098 40.3745678 1.69354098 40.3745678 0.85751002 44.407123 0.85751002 44.407123 1.69354098 42.8297892 1.69354098 42.8297892 6.58856286"></polygon>
            <polygon id="Path" fill="#002237" points="47.9429061 6.58856286 47.06612 6.58856286 47.06612 0.85751002 47.9429061 0.85751002"></polygon>
            <polygon id="Path" fill="#002237" points="51.1636631 6.58856286 50.2912829 6.58856286 50.2912829 1.69354098 48.7084417 1.69354098 48.7084417 0.85751002 52.7454028 0.85751002 52.7454028 1.69354098 51.1625616 1.69354098 51.1625616 6.58856286"></polygon>
            <path d="M57.9499434,6.71633571 C57.106202,6.71633571 56.3902335,6.42444084 55.8218646,5.84836153 C55.2545972,5.27338372 54.9671083,4.55851666 54.9671083,3.72358719 C54.9671083,2.88865771 55.2545972,2.17268917 55.8218646,1.59881284 C56.3902335,1.02273353 57.106202,0.730838662 57.9499434,0.730838662 C58.7881773,0.730838662 59.5008414,1.02493651 60.0692103,1.60432029 C60.6386807,2.18150109 60.9283725,2.89526665 60.9283725,3.72468868 C60.9283725,4.55961815 60.6408836,5.27448521 60.0736163,5.84946302 L60.0736163,5.84946302 C59.5052474,6.42444084 58.7903803,6.71633571 57.9499434,6.71633571 Z M56.4662363,5.27448521 C56.8748891,5.68203653 57.3595447,5.87920326 57.9499434,5.87920326 C58.5337331,5.87920326 59.0305052,5.67542759 59.4281431,5.27448521 C59.8323899,4.87133984 60.0361656,4.34923355 60.0361656,3.7224857 C60.0361656,3.09573785 59.8312884,2.57363155 59.4281431,2.17048619 C59.0294037,1.76844231 58.5326316,1.56576814 57.9499434,1.56576814 C57.3606462,1.56576814 56.8748891,1.76403635 56.4662363,2.17048619 C56.0630909,2.57363155 55.8593108,3.09573785 55.8593108,3.7224857 C55.8582138,4.34923355 56.0630909,4.87133984 56.4662363,5.27448521 L56.4662363,5.27448521 Z" id="Shape" fill="#002237"></path>
            <polygon id="Path" fill="#002237" points="66.3025426 6.58856286 65.4279595 6.58856286 65.4059297 6.55331518 62.6444941 2.17819662 62.6698284 3.0340544 62.6698284 6.58856286 61.7974482 6.58856286 61.7974482 0.85751002 62.7964997 0.85751002 65.4510908 5.05418719 65.4257565 4.20273537 65.4257565 0.85751002 66.3025426 0.85751002 66.3025426 6.58856286"></polygon>
            <path d="M54.8635682,14.6635866 C52.6517762,14.6635866 50.8442309,16.3279381 50.8442309,18.6234434 C50.8442309,20.9002234 52.6517762,22.5821987 54.8635682,22.5821987 C57.0808677,22.5821987 58.8873119,20.9002234 58.8873119,18.6234434 C58.8884129,16.3279381 57.0808677,14.6635866 54.8635682,14.6635866 Z M54.8635682,21.0224888 C53.6497262,21.0224888 52.6055136,20.0322492 52.6055136,18.6234434 C52.6055136,17.1959122 53.6497262,16.2232965 54.8635682,16.2232965 C56.0774103,16.2232965 57.1260297,17.1959122 57.1260297,18.6234434 C57.1271303,20.0322492 56.0774103,21.0224888 54.8635682,21.0224888 Z M46.0935043,14.6635866 C43.8762048,14.6635866 42.074167,16.3279381 42.074167,18.6234434 C42.074167,20.9002234 43.8762048,22.5821987 46.0935043,22.5821987 C48.3097023,22.5821987 50.1128415,20.9002234 50.1128415,18.6234434 C50.1128415,16.3279381 48.3097023,14.6635866 46.0935043,14.6635866 Z M46.0935043,21.0224888 C44.8785607,21.0224888 43.8310437,20.0322492 43.8310437,18.6234434 C43.8310437,17.1959122 44.8785607,16.2232965 46.0935043,16.2232965 C47.3073463,16.2232965 48.3515589,17.1959122 48.3515589,18.6234434 C48.3515589,20.0322492 47.3073463,21.0224888 46.0935043,21.0224888 Z M35.6579873,15.8774286 L35.6579873,17.5605055 L39.7235872,17.5605055 C39.6046263,18.501178 39.2862956,19.1918123 38.799437,19.6731634 C38.2057339,20.2547502 37.2815837,20.9013248 35.6579873,20.9013248 C33.1565034,20.9013248 31.1969525,18.9054248 31.1969525,16.4325796 C31.1969525,13.9597344 33.1565034,11.9638344 35.6579873,11.9638344 C37.0106171,11.9638344 37.9953493,12.4859407 38.7212312,13.1633571 L39.9207539,11.9781538 C38.9051801,11.0198574 37.5536517,10.2829606 35.6579873,10.2829606 C32.2268458,10.2829606 29.3442462,13.0421932 29.3442462,16.4325796 C29.3442462,19.8229661 32.2279473,22.5821987 35.6579873,22.5821987 C37.5117951,22.5821987 38.9051801,21.9818866 40.0000612,20.8550623 C41.1224796,19.7458618 41.4716519,18.1872533 41.4716519,16.9282502 C41.4716519,16.5372212 41.4386072,16.1781354 41.3802283,15.8774286 C41.3802283,15.8774286 35.6579873,15.8774286 35.6579873,15.8774286 Z M78.3319157,17.1815929 C78.0014687,16.2959949 76.9803874,14.6635866 74.9007741,14.6635866 C72.8398862,14.6635866 71.1248661,16.2684576 71.1248661,18.6234434 C71.1248661,20.8418444 72.8222623,22.5821987 75.0979408,22.5821987 C76.9385307,22.5821987 78.0003672,21.4729982 78.4365572,20.827525 L77.0707095,19.9276076 C76.6146927,20.5862987 75.9945537,21.0224888 75.0979408,21.0224888 C74.2068354,21.0224888 73.5668696,20.6182419 73.1582168,19.8229661 L78.5158694,17.6321023 C78.516966,17.6321023 78.3319157,17.1815929 78.3319157,17.1815929 Z M72.8685249,18.5000765 C72.8222623,16.9734113 74.0680476,16.1913533 74.9602546,16.1913533 C75.6597008,16.1913533 76.2534039,16.5372212 76.4505709,17.0317902 C76.4516721,17.0317902 72.8685249,18.5000765 72.8685249,18.5000765 Z M68.5143347,22.3409724 L70.2756173,22.3409724 L70.2756173,10.7048313 L68.5143347,10.7048313 L68.5143347,22.3409724 Z M65.6295322,15.5458801 L65.5711532,15.5458801 C65.1757183,15.0832543 64.4211976,14.6635866 63.4651042,14.6635866 C61.4592908,14.6635866 59.6242083,16.4039409 59.6242083,18.6366613 C59.6242083,20.8561638 61.4581893,22.5821987 63.4651042,22.5821987 C64.4211976,22.5821987 65.1757183,22.160328 65.5711532,21.6822813 L65.6295322,21.6822813 L65.6295322,22.2506502 C65.6295322,23.7640975 64.811125,24.5780987 63.4915399,24.5780987 C62.4153841,24.5780987 61.7478812,23.8103601 61.4725086,23.1637855 L59.940336,23.7960408 C60.3820335,24.8457608 61.5507144,26.1378086 63.4915399,26.1378086 C65.5568338,26.1378086 67.2993911,24.9371845 67.2993911,22.0149313 L67.2993911,14.9048129 L65.6295322,14.9048129 L65.6295322,15.5458801 L65.6295322,15.5458801 Z M63.6149068,21.0224888 C62.4010648,21.0224888 61.3854909,20.0179298 61.3854909,18.6355598 C61.3854909,17.2399719 62.4010648,16.222195 63.6149068,16.222195 C64.811125,16.222195 65.7540006,17.2399719 65.7540006,18.6355598 C65.7540006,20.0190313 64.811125,21.0224888 63.6149068,21.0224888 Z M86.5776703,10.7048313 L82.3655723,10.7048313 L82.3655723,22.3409724 L84.122449,22.3409724 L84.122449,17.9317076 L86.5787718,17.9317076 C88.5295108,17.9317076 90.442799,16.5361197 90.442799,14.3177187 C90.4416975,12.1004192 88.5240033,10.7048313 86.5776703,10.7048313 Z M86.6239329,16.3136187 L84.122449,16.3136187 L84.122449,12.3240217 L86.6239329,12.3240217 C87.9358076,12.3240217 88.6837194,13.4001775 88.6837194,14.3188202 C88.6837194,15.2187376 87.9347061,16.3136187 86.6239329,16.3136187 Z M97.4824221,14.6415568 C96.2135055,14.6415568 94.8939204,15.1956063 94.3508858,16.4226662 L95.9094942,17.0681394 C96.2454487,16.4226662 96.8622831,16.2133831 97.5143653,16.2133831 C98.4252976,16.2133831 99.3494477,16.7542147 99.3637671,17.7103081 L99.3637671,17.8325735 C99.0454365,17.6508276 98.3658171,17.3820641 97.5286846,17.3820641 C95.8500138,17.3820641 94.1393997,18.2951993 94.1393997,20.000306 C94.1393997,21.5600159 95.5140593,22.5634734 97.0605514,22.5634734 C98.2424502,22.5634734 98.8945323,22.0358596 99.3042866,21.4234311 L99.3648686,21.4234311 L99.3648686,22.3233485 L101.061163,22.3233485 L101.061163,17.8601108 C101.060062,15.7959184 99.5014534,14.6415568 97.4824221,14.6415568 Z M97.2698345,21.0180828 C96.6948567,21.0180828 95.8951749,20.7361013 95.8951749,20.0322492 C95.8951749,19.1312303 96.8931249,18.7864639 97.7577946,18.7864639 C98.5310406,18.7864639 98.8934308,18.9549919 99.3637671,19.1774929 C99.2260808,20.2547502 98.2876113,21.0180828 97.2698345,21.0180828 Z M107.241624,14.896001 L105.222593,19.9408255 L105.162011,19.9408255 L103.074687,14.896001 L101.180124,14.896001 L104.316066,21.9455374 L102.526145,25.8679436 L104.361228,25.8679436 L109.194566,14.896001 C109.195667,14.896001 107.241624,14.896001 107.241624,14.896001 Z M91.4077043,22.3409724 L93.1689869,22.3409724 L93.1689869,10.7048313 L91.4077043,10.7048313 L91.4077043,22.3409724 Z" id="path46" fill="#002237"></path>
            <path d="M0.518251079,1.43138635 C0.241777071,1.71777377 0.0809595202,2.16277575 0.0809595202,2.73995655 L0.0809595202,23.326806 C0.0809595202,23.9039868 0.240675581,24.3500903 0.518251079,24.6353762 L0.586543463,24.6981611 L12.2590337,13.1666616 L12.2590337,12.8945935 L0.586543463,1.36419545 L0.518251079,1.43138635 Z" id="path64" fill="url(#linearGradient-1)"></path>
            <path d="M16.1450907,17.0141664 L12.2590337,13.1688645 L12.2590337,12.8967965 L16.1505982,9.05149466 L16.2376159,9.10106171 L20.8462503,11.6928679 C22.1614295,12.4286632 22.1614295,13.6380993 20.8462503,14.3783006 L16.2376159,16.9645993 C16.2365144,16.9634978 16.1450907,17.0141664 16.1450907,17.0141664 Z" id="path78" fill="url(#linearGradient-2)"></path>
            <path d="M16.2365144,16.9634978 L12.2579323,13.0311783 L0.518251079,24.6364777 C0.955542637,25.0902916 1.66710522,25.1453661 2.47780192,24.6915522 L16.2365144,16.9634978" id="path88" fill="url(#linearGradient-3)"></path>
            <path d="M16.2365144,9.09996022 L2.47670043,1.37190588 C1.66710522,0.922497935 0.954441147,0.977572438 0.517149588,1.43138635 L12.2579323,13.0311783 L16.2365144,9.09996022 Z" id="path104" fill="url(#linearGradient-4)"></path>
        </g>
    </g>
</svg>