<?xml version="1.0" encoding="UTF-8"?>
<svg width="20px" height="20px" viewBox="0 0 30 30" version="1.1" xmlns="http://www.w3.org/2000/svg" xmlns:xlink="http://www.w3.org/1999/xlink">
    <!-- Generator: Sketch 57.1 (83088) - https://sketch.com -->
    <title>language</title>
    <desc>Created with Sketch.</desc>
    <g id="Assets" stroke="none" stroke-width="1" fill="none" fill-rule="evenodd">
        <g id="language" fill="#657795" fill-rule="nonzero">
            <path d="M15,0 C6.75,0 0,6.75 0,15 C0,23.25 6.75,30 15,30 C23.25,30 30,23.25 30,15 C30,6.75 23.25,0 15,0 Z M25.35,9 L21,9 C20.55,7.05 19.8,5.4 18.9,3.6 C21.6,4.65 24,6.45 25.35,9 Z M15,3 C16.2,4.8 17.25,6.75 17.85,9 L12.15,9 C12.75,6.9 13.8,4.8 15,3 Z M3.45,18 C3.15,17.1 3,16.05 3,15 C3,13.95 3.15,12.9 3.45,12 L8.55,12 C8.4,13.05 8.4,13.95 8.4,15 C8.4,16.05 8.55,16.95 8.55,18 L3.45,18 Z M4.65,21 L9,21 C9.45,22.95 10.2,24.6 11.1,26.4 C8.4,25.35 6,23.55 4.65,21 Z M9,9 L4.65,9 C6.15,6.45 8.4,4.65 11.1,3.6 C10.2,5.4 9.45,7.05 9,9 Z M15,27 C13.8,25.2 12.75,23.25 12.15,21 L17.85,21 C17.25,23.1 16.2,25.2 15,27 Z M18.45,18 L11.55,18 C11.4,16.95 11.25,16.05 11.25,15 C11.25,13.95 11.4,13.05 11.55,12 L18.6,12 C18.75,13.05 18.9,13.95 18.9,15 C18.9,16.05 18.6,16.95 18.45,18 Z M18.9,26.4 C19.8,24.75 20.55,22.9500588 21,21 L25.35,21 C24,23.55 21.6,25.35 18.9,26.4 Z M21.6,18 C21.75,16.95 21.75,16.05 21.75,15 C21.75,13.95 21.6,13.05 21.6,12 L26.7,12 C27,12.9 27.1499412,13.95 27.1499412,15 C27.1499412,16.05 26.9999412,17.1 26.7,18 L21.6,18 Z" id="Shape"></path>
        </g>
    </g>
</svg>
