<svg width="27" height="30" viewBox="0 0 20 22" fill="none" xmlns="http://www.w3.org/2000/svg">
<path d="M16 0H2C0.89543 0 0 0.89543 0 2V9C0 10.1046 0.89543 11 2 11H16C17.1046 11 18 10.1046 18 9V2C18 0.89543 17.1046 0 16 0Z" transform="translate(1 10)" stroke="#009FFF" stroke-width="2" stroke-linecap="round" stroke-linejoin="round"/>
<path d="M0 9V5C0 3.67392 0.526784 2.40215 1.46447 1.46447C2.40215 0.526784 3.67392 0 5 0C6.32608 0 7.59785 0.526784 8.53553 1.46447C9.47322 2.40215 10 3.67392 10 5V9" transform="translate(5 1)" stroke="#009FFF" stroke-width="2" stroke-linecap="round" stroke-linejoin="round"/>
</svg>
