<?xml version="1.0" encoding="UTF-8"?>
<svg width="15px" height="12px" viewBox="0 0 15 12" version="1.1" xmlns="http://www.w3.org/2000/svg" xmlns:xlink="http://www.w3.org/1999/xlink">
    <!-- Generator: Sketch 57.1 (83088) - https://sketch.com -->
    <title>right-arrow</title>
    <desc>Created with Sketch.</desc>
    <g id="Website" stroke="none" stroke-width="1" fill="none" fill-rule="evenodd">
        <g id="Desktop-HD" transform="translate(-198.000000, -580.000000)" fill="#FFFFFF" fill-rule="nonzero">
            <g id="Group-3" transform="translate(75.000000, 561.000000)">
                <g id="Group-2" transform="translate(115.000000, 10.000000)">
                    <path d="M22.1568295,13.8670458 L22.1802441,13.8719791 L12.1429292,13.8719791 L15.2982944,10.8261406 C15.4528065,10.677437 15.5375626,10.4759942 15.5375626,10.2645674 C15.5375626,10.0531406 15.4528065,9.85310729 15.2982944,9.70405137 L14.8073189,9.23092509 C14.6529286,9.08222155 14.447197,9 14.2278068,9 C14.0082946,9 13.802441,9.08163425 13.6480508,9.23033779 L8.23914956,14.4395427 C8.08414959,14.5888335 7.99939351,14.7876922 8,14.9992365 C7.99939351,15.2119554 8.08414959,15.4109316 8.23914956,15.5599875 L13.6480508,20.7696622 C13.802441,20.9182483 14.0081727,21 14.2278068,21 C14.447197,21 14.6529286,20.9181308 14.8073189,20.7696622 L15.2982944,20.2965359 C15.4528065,20.1480673 15.5375626,19.9497959 15.5375626,19.7383691 C15.5375626,19.5270597 15.4528065,19.3392422 15.2982944,19.1906561 L12.1073194,16.127786 L22.168049,16.127786 C22.620122,16.127786 23,15.7525034 23,15.3173164 L23,14.6481505 C23,14.2129636 22.6089025,13.8670458 22.1568295,13.8670458 Z" id="right-arrow" transform="translate(15.500000, 15.000000) rotate(-180.000000) translate(-15.500000, -15.000000) "></path>
                </g>
            </g>
        </g>
    </g>
</svg>