<?xml version="1.0" encoding="UTF-8" standalone="no"?>
<svg
   xmlns:dc="http://purl.org/dc/elements/1.1/"
   xmlns:cc="http://creativecommons.org/ns#"
   xmlns:rdf="http://www.w3.org/1999/02/22-rdf-syntax-ns#"
   xmlns:svg="http://www.w3.org/2000/svg"
   xmlns="http://www.w3.org/2000/svg"
   xmlns:sodipodi="http://sodipodi.sourceforge.net/DTD/sodipodi-0.dtd"
   xmlns:inkscape="http://www.inkscape.org/namespaces/inkscape"
   inkscape:version="1.0 (4035a4f, 2020-05-01)"
   sodipodi:docname="ShakepayLogo.svg"
   id="svg32"
   version="1.1"
   fill="none"
   viewBox="0 0 800 800"
   height="800"
   width="800">
  <metadata
     id="metadata36">
    <rdf:RDF>
      <cc:Work
         rdf:about="">
        <dc:format>image/svg+xml</dc:format>
        <dc:type
           rdf:resource="http://purl.org/dc/dcmitype/StillImage" />
      </cc:Work>
    </rdf:RDF>
  </metadata>
  <sodipodi:namedview
     inkscape:current-layer="svg32"
     inkscape:window-maximized="1"
     inkscape:window-y="23"
     inkscape:window-x="1440"
     inkscape:cy="593.29825"
     inkscape:cx="351.88324"
     inkscape:zoom="0.556875"
     showgrid="false"
     id="namedview34"
     inkscape:window-height="1035"
     inkscape:window-width="1920"
     inkscape:pageshadow="2"
     inkscape:pageopacity="0"
     guidetolerance="10"
     gridtolerance="10"
     objecttolerance="10"
     borderopacity="1"
     bordercolor="#666666"
     pagecolor="#ffffff" />
  <mask
     fill="black"
     height="541"
     width="632"
     y="130.317"
     x="84"
     maskUnits="userSpaceOnUse"
     id="path-3-outside-1">
    <rect
       id="rect10"
       height="541"
       width="632"
       y="130.317"
       x="84"
       fill="white" />
    <path
       id="path12"
       d="M113.505 517.636C126.273 532.263 194.785 589.439 304.326 636.756C334.857 649.944 377.304 655.123 400.018 655.188C400.018 479.254 400.018 202.157 400.018 202.157L350.616 202.233C350.616 202.233 182.356 114.908 140.083 158.571C97.81 202.233 89.0144 489.581 113.505 517.636Z"
       clip-rule="evenodd"
       fill-rule="evenodd" />
    <path
       id="path14"
       d="M495.355 636.727C604.896 589.41 673.408 539.845 686.177 525.218C710.667 497.162 701.871 202.205 659.598 158.542C617.325 114.88 449.065 202.205 449.065 202.205L400.018 202.157C400.018 202.157 400.018 479.254 400.018 655.188C422.733 655.253 464.824 649.915 495.355 636.727Z" />
  </mask>
  <path
     id="path17"
     fill="white"
     d="M113.505 517.636C126.273 532.263 194.785 589.439 304.326 636.756C334.857 649.944 377.304 655.123 400.018 655.188C400.018 479.254 400.018 202.157 400.018 202.157L350.616 202.233C350.616 202.233 182.356 114.908 140.083 158.571C97.81 202.233 89.0144 489.581 113.505 517.636Z"
     clip-rule="evenodd"
     fill-rule="evenodd" />
  <path
     id="path19"
     fill="white"
     d="M495.355 636.727C604.896 589.41 673.408 539.845 686.177 525.218C710.667 497.162 701.871 202.205 659.598 158.542C617.325 114.88 449.065 202.205 449.065 202.205L400.018 202.157C400.018 202.157 400.018 479.254 400.018 655.188C422.733 655.253 464.824 649.915 495.355 636.727Z" />
  <path
     transform="matrix(1.1478249,0,0,1.1478249,-59.106405,-59.241287)"
     id="path21"
     mask="url(#path-3-outside-1)"
     fill="#ffffff"
     d="m 408.018,655.188 c 0,-87.967 0,-201.225 0,-292.491 0,-45.633 0,-85.768 0,-114.495 0,-14.363 0,-25.875 0,-33.795 0,-3.96 0,-7.023 0,-9.095 0,-1.039 0,-1.822 0,-2.355 0,-0.26 0,-0.469 0,-0.599 0,-0.057 0,-0.126 0,-0.151 0,-0.067 0,0.021 0,-0.037 0,-0.005 0,-0.008 0,-0.01 0,-0.002 0,-0.003 -8,-0.003 -8,0 -8,10e-4 -8,0.003 0,0.002 0,0.005 0,0.009 0,0.059 0,-0.029 0,0.038 0,0.025 0,0.094 0,0.151 0,0.139 0,0.33 0,0.599 0,0.528 0,1.32 0,2.355 0,2.072 0,5.135 0,9.095 0,7.92 0,19.432 0,33.795 0,28.727 0,68.862 0,114.495 0,91.266 0,204.524 0,292.491 z M 113.505,517.636 101.451,528.158 v 0 z m 190.821,119.12 -6.344,14.688 z m 95.692,-434.599 0.016,-16 h -0.02 -0.021 z m -49.402,0.076 -7.37,14.202 3.477,1.805 3.918,-0.007 z m 335.561,322.985 -12.054,-10.522 v 0 z M 495.355,636.727 489.01,622.039 Z m -46.29,-434.522 -0.016,16 3.913,0.004 3.474,-1.803 z M 101.451,528.158 c 7.736,8.863 29.394,27.724 62.18,50.011 33.163,22.545 78.559,49.175 134.351,73.275 l 12.689,-29.377 c -53.749,-23.217 -97.38,-48.832 -129.05,-70.362 -32.049,-21.786 -51.031,-38.826 -56.063,-44.59 z m 196.531,123.286 c 33.176,14.331 77.962,19.675 101.99,19.744 l 0.092,-32 c -21.401,-0.061 -61.508,-5.076 -89.393,-17.121 z m 102.011,-465.287 -49.402,0.077 0.05,31.999 49.402,-0.076 z m -49.377,16.076 c 7.37,-14.201 7.368,-14.202 7.364,-14.204 -0.002,-0.001 -0.006,-0.003 -0.01,-0.005 -0.008,-0.004 -0.018,-0.01 -0.032,-0.017 -0.026,-0.013 -0.062,-0.032 -0.108,-0.056 -0.093,-0.048 -0.226,-0.116 -0.398,-0.204 -0.344,-0.177 -0.844,-0.432 -1.491,-0.759 -1.294,-0.655 -3.178,-1.6 -5.578,-2.78 -4.8,-2.36 -11.677,-5.667 -20.052,-9.491 -16.715,-7.633 -39.566,-17.402 -63.88,-25.81 -24.148,-8.35 -50.537,-15.642 -74.117,-17.864 -22.496,-2.12 -47.708,-0.146 -63.726,16.398 l 22.99,22.259 c 5.119,-5.287 16.792,-8.771 37.734,-6.798 19.858,1.872 43.46,8.225 66.661,16.248 23.035,7.965 44.891,17.299 61.046,24.676 8.059,3.68 14.658,6.854 19.225,9.099 2.283,1.122 4.056,2.011 5.247,2.614 0.595,0.302 1.045,0.531 1.341,0.683 0.148,0.076 0.257,0.132 0.326,0.168 0.035,0.017 0.059,0.03 0.074,0.038 0.007,0.004 0.012,0.006 0.014,0.007 0.002,0.001 0.001,0.001 0.002,0.001 -10e-4,0 -0.002,-0.001 7.368,-14.203 z M 128.588,147.441 c -7.76,8.016 -13.446,19.981 -17.888,32.651 -4.594,13.107 -8.487,28.862 -11.7649,46.063 -6.5621,34.438 -10.9183,76.081 -13.1536,116.927 -2.2363,40.865 -2.3758,81.418 -0.3698,113.745 1.0006,16.126 2.5558,30.559 4.7513,42.105 1.0961,5.765 2.4113,11.133 4.0262,15.78 1.5153,4.361 3.7308,9.401 7.2618,13.446 l 24.107,-21.043 c 0.47,0.538 -0.116,0.045 -1.142,-2.907 -0.926,-2.665 -1.892,-6.391 -2.816,-11.253 -1.846,-9.708 -3.292,-22.668 -4.25,-38.11 -1.911,-30.805 -1.802,-70.078 0.384,-110.015 2.186,-39.955 6.424,-80.089 12.636,-112.686 3.109,-16.316 6.647,-30.392 10.529,-41.466 4.035,-11.512 7.872,-18.078 10.679,-20.978 z m 545.535,367.255 c -2.019,2.313 -7.546,7.318 -17.341,14.659 -9.497,7.118 -22.287,15.903 -38.168,25.767 -31.754,19.723 -75.567,43.575 -129.604,66.917 l 12.689,29.377 c 55.505,-23.976 100.718,-48.564 133.798,-69.111 16.535,-10.27 30.114,-19.577 40.477,-27.344 10.066,-7.545 17.891,-14.221 22.256,-19.221 z M 489.01,622.039 c -27.94,12.069 -67.704,17.21 -88.946,17.149 l -0.092,32 c 24.188,0.069 68.606,-5.465 101.727,-19.772 z m -89.007,-403.882 49.046,0.048 0.032,-32 -49.047,-0.048 z m 49.062,-15.952 c 7.371,14.201 7.369,14.202 7.368,14.203 0.001,-10e-4 0.001,-10e-4 0.002,-10e-4 0.002,-0.001 0.007,-0.004 0.014,-0.008 0.015,-0.007 0.039,-0.02 0.074,-0.038 0.069,-0.036 0.178,-0.092 0.326,-0.168 0.296,-0.151 0.746,-0.381 1.341,-0.682 1.191,-0.603 2.964,-1.492 5.247,-2.614 4.567,-2.246 11.166,-5.42 19.225,-9.1 16.155,-7.377 38.011,-16.71 61.046,-24.675 23.201,-8.023 46.804,-14.377 66.661,-16.248 20.942,-1.974 32.615,1.51 37.734,6.798 l 22.99,-22.259 c -16.017,-16.544 -41.23,-18.518 -63.726,-16.398 -23.58,2.222 -49.969,9.513 -74.117,17.864 -24.314,8.408 -47.165,18.177 -63.88,25.809 -8.375,3.825 -15.252,7.132 -20.052,9.492 -2.4,1.18 -4.284,2.124 -5.578,2.779 -0.647,0.328 -1.147,0.583 -1.491,0.759 -0.172,0.088 -0.305,0.157 -0.397,0.205 -0.047,0.024 -0.083,0.042 -0.109,0.056 -0.013,0.007 -0.024,0.012 -0.032,0.016 -0.004,0.002 -0.008,0.005 -0.01,0.006 -0.003,0.001 -0.006,0.003 7.364,14.204 z m 199.038,-32.533 c 2.76,2.851 6.6,9.469 10.652,21.224 3.889,11.287 7.433,25.667 10.545,42.349 6.218,33.324 10.459,74.423 12.646,115.342 2.187,40.899 2.297,81.137 0.384,112.673 -0.96,15.806 -2.407,29.075 -4.259,39.005 -0.928,4.974 -1.898,8.786 -2.83,11.51 -1.038,3.031 -1.625,3.502 -1.118,2.921 l 24.107,21.044 c 3.569,-4.089 5.783,-9.21 7.286,-13.603 1.609,-4.7 2.92,-10.145 4.013,-16.006 2.189,-11.741 3.742,-26.46 4.742,-42.933 2.004,-33.024 1.865,-74.514 -0.37,-116.32 -2.234,-41.785 -6.588,-84.366 -13.144,-119.502 -3.274,-17.549 -7.162,-33.596 -11.749,-46.906 -4.425,-12.842 -10.107,-24.992 -17.915,-33.057 z" />
  <path
     style="fill:url(#paint0_linear);stroke-width:1.2695"
     id="path23"
     fill="url(#paint0_linear)"
     d="M 763.66362,558.44479 C 747.4546,577.01382 660.4771,639.93677 521.4144,700.00714 c -38.75794,16.74094 -92.19388,23.51755 -121.02939,23.43504 -28.83677,-0.0825 -82.7234,-6.65729 -121.48134,-23.3995 C 139.84098,639.97358 52.863476,567.38971 36.654453,548.82068 5.5639289,513.20349 16.730102,148.41544 70.39659,92.985101 124.06232,37.554764 337.66773,148.41544 337.66773,148.41544 l 62.71728,-0.0977 62.26534,0.0609 c 0,0 213.60541,-110.859395 267.27114,-55.429063 53.66573,55.429063 64.83228,429.878053 33.74213,465.495243 z M 710.15405,303.37231 c 11.19067,-2.64183 -0.75662,-138.76817 -38.24253,-161.03653 -37.48717,-22.26836 -144.39207,36.50458 -140.85143,49.76328 3.54065,13.2587 167.90328,113.91382 179.09396,111.27325 z M 128.4129,142.37133 C 90.925731,164.63969 78.979706,300.76602 90.170383,303.40786 101.36105,306.0497 265.72242,205.39457 269.26433,192.13587 272.80497,178.87591 165.90007,120.10297 128.4129,142.37133 Z M 60.592213,540.34166 C 45.00017,513.93853 48.19805,470.39836 52.511823,467.29569 62.80115,459.8945 181.91359,393.45629 245.42686,358.02953 l 0.001,-0.001 c 19.5275,-10.89234 33.80053,-18.85213 38.03687,-21.26419 18.02059,-10.25631 45.53328,13.03653 54.20525,31.59414 8.67199,18.55633 -0.46463,71.99863 -0.46463,71.99863 0,0 -37.01999,-41.42772 -53.74062,-31.91151 -16.71936,9.5162 -162.39745,92.86038 -177.98696,102.24454 -15.590766,9.38544 0,59.96755 0,59.96755 0,0 -35.73398,-14.81637 -44.885832,-30.31575 z m 516.941867,51.54059 c -0.0964,-59.49275 -88.7421,-103.16876 -177.48549,-103.16876 -88.74338,0 -177.58324,43.67601 -177.48676,103.16876 0.0977,59.49147 88.97189,103.16874 177.82445,103.16874 88.85255,0 177.24555,-43.67727 177.1478,-103.16874 z m -175.82752,53.32169 c -30.78926,0 -77.70123,-48.15101 -61.42619,-65.41118 16.27503,-17.26144 108.02205,-16.06049 123.10376,0 15.08043,16.05923 -30.88957,65.41118 -61.67757,65.41118 z M 739.72967,540.30612 c 15.59204,-26.40313 12.39417,-69.9433 8.0804,-73.04597 -10.28933,-7.4012 -129.40051,-73.83941 -192.91505,-109.26618 l -0.001,-10e-4 c -19.52751,-10.89234 -33.80053,-18.85341 -38.03813,-21.26546 -18.01934,-10.25633 -45.53329,13.0378 -54.204,31.59413 -8.67198,18.55761 0.46337,71.9999 0.46337,71.9999 0,0 37.01999,-41.42771 53.74063,-31.91151 16.72063,9.51493 162.39743,92.85911 177.98821,102.24455 15.5895,9.38417 0,59.96754 0,59.96754 0,0 35.73272,-14.81638 44.88583,-30.31574 z"
     clip-rule="evenodd"
     fill-rule="evenodd" />
  <defs
     id="defs30">
    <linearGradient
       gradientTransform="matrix(1.2695036,0,0,1.2695036,-107.84426,-107.91893)"
       gradientUnits="userSpaceOnUse"
       y2="136.957"
       x2="593.856"
       y1="555.681"
       x1="1043.04"
       id="paint0_linear">
      <stop
         id="stop25"
         stop-color="#00CDFF" />
      <stop
         id="stop27"
         stop-color="#009FFF"
         offset="1" />
    </linearGradient>
  </defs>
</svg>
