<?xml version="1.0" encoding="UTF-8"?>
<svg width="156px" height="26px" viewBox="0 0 156 26" version="1.1" xmlns="http://www.w3.org/2000/svg" xmlns:xlink="http://www.w3.org/1999/xlink">
    <!-- Generator: Sketch 57.1 (83088) - https://sketch.com -->
    <title>techvibes</title>
    <desc>Created with Sketch.</desc>
    <g id="Assets" stroke="none" stroke-width="1" fill="none" fill-rule="evenodd">
        <g id="techvibes" fill="#657795" fill-rule="nonzero">
            <path d="M0,0.247619048 L20.3047619,0.247619048 L20.3047619,4.82857143 L0,4.82857143 L0,0.247619048 Z M45.8095238,10.2761905 C45.0666667,10.2761905 44.3238095,10.4 43.8285714,10.7714286 C43.3333333,11.1428571 42.8380952,11.6380952 42.4666667,12.1333333 C42.0952381,12.752381 41.847619,13.3714286 41.7238095,13.9904762 C41.6,14.7333333 41.4761905,15.352381 41.4761905,15.9714286 C41.4761905,16.5904762 41.6,17.3333333 41.7238095,17.952381 C41.847619,18.5714286 42.0952381,19.1904762 42.3428571,19.8095238 C42.7142857,20.3047619 43.0857143,20.8 43.5809524,21.1714286 C44.0761905,21.5428571 44.8190476,21.6666667 45.5619048,21.6666667 C46.8,21.6666667 47.6666667,21.2952381 48.2857143,20.6761905 C48.9047619,20.0571429 49.2761905,19.1904762 49.5238095,18.0761905 L54.2285714,18.0761905 C53.8571429,20.4285714 52.9904762,22.2857143 51.5047619,23.5238095 C50.0190476,24.7619048 48.0380952,25.3809524 45.6857143,25.3809524 C44.3238095,25.3809524 43.0857143,25.1333333 41.9714286,24.7619048 C40.8571429,24.2666667 39.8666667,23.647619 39.1238095,22.9047619 C38.3809524,22.0380952 37.7619048,21.1714286 37.2666667,20.0571429 C36.7714286,18.9428571 36.647619,17.7047619 36.647619,16.3428571 C36.647619,14.9809524 36.8952381,13.6190476 37.2666667,12.5047619 C37.6380952,11.2666667 38.2571429,10.2761905 39,9.40952381 C39.7428571,8.54285714 40.7333333,7.8 41.847619,7.42857143 C42.9619048,6.93333333 44.3238095,6.68571429 45.6857143,6.68571429 C46.8,6.68571429 47.7904762,6.80952381 48.7809524,7.05714286 C49.7714286,7.3047619 50.6380952,7.8 51.3809524,8.2952381 C52.1238095,8.91428571 52.7428571,9.53333333 53.2380952,10.4 C53.7333333,11.2666667 53.9809524,12.2571429 54.1047619,13.3714286 L49.2761905,13.3714286 C49.152381,11.3904762 47.9142857,10.2761905 45.8095238,10.2761905 Z M60.9142857,0.247619048 L60.9142857,9.65714286 L61.0380952,9.65714286 C61.6571429,8.66666667 62.5238095,7.8 63.3904762,7.42857143 C64.3809524,6.93333333 65.3714286,6.68571429 66.2380952,6.68571429 C67.6,6.68571429 68.5904762,6.80952381 69.4571429,7.18095238 C70.3238095,7.55238095 70.9428571,8.04761905 71.4380952,8.66666667 C71.9333333,9.28571429 72.3047619,10.0285714 72.4285714,11.0190476 C72.6761905,11.8857143 72.6761905,13 72.6761905,14.1142857 L72.6761905,25.1333333 L67.7238095,25.1333333 L67.7238095,14.9809524 C67.7238095,13.4952381 67.4761905,12.3809524 66.9809524,11.6380952 C66.4857143,10.8952381 65.7428571,10.5238095 64.5047619,10.5238095 C63.1428571,10.5238095 62.152381,10.8952381 61.5333333,11.7619048 C60.9142857,12.5047619 60.6666667,13.8666667 60.6666667,15.7238095 L60.6666667,25.1333333 L55.7142857,25.1333333 L55.7142857,0.247619048 L60.9142857,0.247619048 Z M78.9904762,25.0095238 L72.8,7.05714286 L78,7.05714286 L81.8380952,19.3142857 L81.9619048,19.3142857 L85.8,7.05714286 L90.752381,7.05714286 L84.6857143,25.0095238 C84.6857143,25.0095238 78.9904762,25.0095238 78.9904762,25.0095238 Z M96.8190476,7.05714286 L96.8190476,25.0095238 L91.8666667,25.0095238 L91.8666667,7.05714286 L96.8190476,7.05714286 Z M104.371429,0 L104.371429,9.03809524 L104.495238,9.03809524 C105.114286,8.17142857 105.857143,7.42857143 106.971429,7.05714286 C107.961905,6.68571429 109.07619,6.43809524 110.190476,6.43809524 C111.057143,6.43809524 112.047619,6.68571429 112.914286,6.93333333 C113.780952,7.3047619 114.647619,7.92380952 115.266667,8.66666667 C116.009524,9.40952381 116.504762,10.4 117,11.6380952 C117.495238,12.8761905 117.619048,14.2380952 117.619048,15.847619 C117.619048,17.4571429 117.371429,18.9428571 117,20.0571429 C116.504762,21.2952381 116.009524,22.2857143 115.266667,23.0285714 C114.52381,23.7714286 113.780952,24.3904762 112.914286,24.7619048 C112.047619,25.1333333 111.180952,25.2571429 110.190476,25.2571429 C108.828571,25.2571429 107.714286,25.0095238 106.6,24.6380952 C105.609524,24.2666667 104.742857,23.5238095 104.247619,22.5333333 L104.12381,22.5333333 L104.12381,24.8857143 L99.4190476,24.8857143 L99.4190476,0 L104.371429,0 Z M112.295238,13.6190476 C112.171429,12.8761905 111.92381,12.2571429 111.552381,11.7619048 C111.180952,11.2666667 110.809524,10.7714286 110.190476,10.5238095 C109.695238,10.152381 109.07619,10.0285714 108.333333,10.0285714 C107.590476,10.0285714 106.971429,10.152381 106.47619,10.5238095 C105.980952,10.8952381 105.485714,11.2666667 105.114286,11.7619048 C104.742857,12.2571429 104.495238,12.8761905 104.371429,13.6190476 C104.247619,14.3619048 104.12381,15.1047619 104.12381,15.847619 C104.12381,16.5904762 104.247619,17.3333333 104.371429,17.952381 C104.495238,18.6952381 104.742857,19.3142857 105.114286,19.8095238 C105.485714,20.3047619 105.857143,20.8 106.47619,21.047619 C106.971429,21.4190476 107.590476,21.5428571 108.333333,21.5428571 C109.07619,21.5428571 109.695238,21.4190476 110.190476,21.047619 C110.685714,20.6761905 111.180952,20.3047619 111.552381,19.8095238 C111.92381,19.3142857 112.171429,18.6952381 112.295238,17.952381 C112.419048,17.2095238 112.542857,16.5904762 112.542857,15.847619 C112.542857,15.1047619 112.542857,14.3619048 112.295238,13.6190476 Z M125.171429,20.8 C125.914286,21.5428571 127.028571,21.9142857 128.390476,21.9142857 C129.380952,21.9142857 130.247619,21.6666667 130.990476,21.1714286 C131.733333,20.6761905 132.104762,20.1809524 132.352381,19.5619048 L136.685714,19.5619048 C135.942857,21.6666667 134.952381,23.2761905 133.466667,24.1428571 C131.980952,25.0095238 130.247619,25.5047619 128.266667,25.5047619 C126.904762,25.5047619 125.542857,25.2571429 124.428571,24.8857143 C123.314286,24.3904762 122.32381,23.7714286 121.580952,22.9047619 C120.838095,22.0380952 120.219048,21.047619 119.72381,19.9333333 C119.352381,18.8190476 119.104762,17.4571429 119.104762,16.0952381 C119.104762,14.7333333 119.352381,13.4952381 119.72381,12.3809524 C120.219048,11.2666667 120.838095,10.2761905 121.580952,9.40952381 C122.447619,8.54285714 123.314286,7.92380952 124.428571,7.42857143 C125.542857,6.93333333 126.780952,6.68571429 128.142857,6.68571429 C129.628571,6.68571429 130.990476,6.93333333 132.104762,7.55238095 C133.219048,8.17142857 134.209524,8.91428571 134.952381,9.9047619 C135.695238,10.8952381 136.190476,12.0095238 136.561905,13.3714286 C136.933333,14.6095238 137.057143,15.9714286 136.933333,17.3333333 L123.933333,17.3333333 C123.933333,18.8190476 124.428571,20.0571429 125.171429,20.8 Z M130.742857,11.2666667 C130.12381,10.647619 129.257143,10.2761905 128.019048,10.2761905 C127.27619,10.2761905 126.533333,10.4 126.038095,10.647619 C125.542857,10.8952381 125.047619,11.2666667 124.8,11.6380952 C124.428571,12.0095238 124.304762,12.5047619 124.180952,12.8761905 C124.057143,13.3714286 123.933333,13.7428571 123.933333,14.1142857 L131.980952,14.1142857 C131.733333,12.8761905 131.238095,11.8857143 130.742857,11.2666667 Z M143.619048,20.552381 C143.866667,20.9238095 144.114286,21.2952381 144.485714,21.5428571 C144.857143,21.7904762 145.228571,21.9142857 145.72381,22.0380952 C146.219048,22.1619048 146.590476,22.1619048 147.085714,22.1619048 C147.457143,22.1619048 147.828571,22.1619048 148.2,22.0380952 C148.571429,21.9142857 148.942857,21.7904762 149.190476,21.6666667 C149.438095,21.5428571 149.809524,21.2952381 149.933333,20.9238095 C150.180952,20.6761905 150.304762,20.3047619 150.304762,19.8095238 C150.304762,19.0666667 149.809524,18.5714286 148.819048,18.2 C147.828571,17.8285714 146.466667,17.4571429 144.733333,17.0857143 C143.990476,16.9619048 143.371429,16.7142857 142.628571,16.4666667 C141.885714,16.2190476 141.390476,15.9714286 140.771429,15.6 C140.152381,15.2285714 139.780952,14.7333333 139.533333,14.2380952 C139.161905,13.7428571 139.038095,13 139.038095,12.2571429 C139.038095,11.1428571 139.285714,10.152381 139.657143,9.40952381 C140.152381,8.66666667 140.647619,8.04761905 141.390476,7.67619048 C142.133333,7.3047619 143,6.93333333 143.866667,6.80952381 C144.733333,6.68571429 145.72381,6.56190476 146.714286,6.56190476 C147.704762,6.56190476 148.571429,6.68571429 149.561905,6.80952381 C150.428571,7.05714286 151.295238,7.3047619 152.038095,7.8 C152.780952,8.2952381 153.4,8.79047619 153.771429,9.53333333 C154.266667,10.2761905 154.514286,11.1428571 154.638095,12.2571429 L149.933333,12.2571429 C149.809524,11.2666667 149.561905,10.647619 148.819048,10.2761905 C148.2,9.9047619 147.457143,9.78095238 146.466667,9.78095238 C146.219048,9.78095238 145.847619,9.78095238 145.6,9.78095238 C145.228571,9.78095238 144.980952,9.9047619 144.733333,10.0285714 C144.485714,10.152381 144.238095,10.2761905 144.114286,10.5238095 C143.866667,10.7714286 143.866667,11.0190476 143.866667,11.3904762 C143.866667,11.8857143 143.990476,12.1333333 144.361905,12.5047619 C144.733333,12.752381 145.104762,13 145.6,13.1238095 C146.095238,13.247619 146.714286,13.4952381 147.333333,13.6190476 C147.952381,13.7428571 148.695238,13.8666667 149.438095,14.1142857 C150.180952,14.2380952 150.8,14.4857143 151.542857,14.7333333 C152.285714,14.9809524 152.780952,15.2285714 153.4,15.6 C153.895238,15.9714286 154.390476,16.4666667 154.638095,17.0857143 C155.009524,17.7047619 155.133333,18.3238095 155.133333,19.1904762 C155.133333,20.4285714 154.885714,21.4190476 154.390476,22.1619048 C153.895238,22.9047619 153.27619,23.647619 152.533333,24.1428571 C151.790476,24.6380952 150.92381,25.0095238 149.933333,25.1333333 C148.942857,25.3809524 147.952381,25.3809524 146.961905,25.3809524 C145.971429,25.3809524 144.857143,25.2571429 143.866667,25.0095238 C142.87619,24.7619048 142.009524,24.5142857 141.266667,24.0190476 C140.52381,23.5238095 139.904762,22.9047619 139.409524,22.0380952 C138.914286,21.2952381 138.666667,20.1809524 138.542857,19.0666667 L143.247619,19.0666667 C143.247619,19.8095238 143.371429,20.1809524 143.619048,20.552381 Z M7.42857143,8.2952381 L12.8761905,8.2952381 L12.8761905,25.1333333 L7.42857143,25.1333333 L7.42857143,8.2952381 Z M23.152381,20.8 C23.8952381,21.5428571 25.0095238,21.9142857 26.3714286,21.9142857 C27.3619048,21.9142857 28.2285714,21.6666667 28.9714286,21.1714286 C29.7142857,20.6761905 30.0857143,20.1809524 30.3333333,19.5619048 L34.6666667,19.5619048 C33.9238095,21.6666667 32.9333333,23.2761905 31.447619,24.1428571 C29.9619048,25.0095238 28.2285714,25.5047619 26.247619,25.5047619 C24.8857143,25.5047619 23.5238095,25.2571429 22.4095238,24.8857143 C21.2952381,24.3904762 20.3047619,23.7714286 19.5619048,22.9047619 C18.8190476,22.0380952 18.2,21.047619 17.7047619,19.9333333 C17.3333333,18.8190476 17.0857143,17.4571429 17.0857143,16.0952381 C17.0857143,14.7333333 17.3333333,13.4952381 17.7047619,12.3809524 C18.2,11.2666667 18.8190476,10.2761905 19.5619048,9.40952381 C20.4285714,8.54285714 21.2952381,7.92380952 22.4095238,7.42857143 C23.5238095,6.93333333 24.7619048,6.68571429 26.1238095,6.68571429 C27.6095238,6.68571429 28.9714286,6.93333333 30.0857143,7.55238095 C31.2,8.17142857 32.1904762,8.91428571 32.9333333,9.9047619 C33.6761905,10.8952381 34.1714286,12.0095238 34.5428571,13.3714286 C34.9142857,14.6095238 35.0380952,15.9714286 34.9142857,17.3333333 L21.9142857,17.3333333 C22.0380952,18.8190476 22.4095238,20.0571429 23.152381,20.8 Z M28.7238095,11.2666667 C28.1047619,10.647619 27.2380952,10.2761905 26,10.2761905 C25.2571429,10.2761905 24.5142857,10.4 24.0190476,10.647619 C23.5238095,10.8952381 23.0285714,11.2666667 22.7809524,11.6380952 C22.4095238,12.0095238 22.2857143,12.5047619 22.1619048,12.8761905 C22.0380952,13.3714286 21.9142857,13.7428571 21.9142857,14.1142857 L29.9619048,14.1142857 C29.7142857,12.8761905 29.3428571,11.8857143 28.7238095,11.2666667 Z" id="Shape"></path>
        </g>
    </g>
</svg>